<svg xmlns="http://www.w3.org/2000/svg" width="640" height="450" viewBox="0 98 640 450" role="img" aria-label="Where Goggsy Goes"><g transform="translate(320.00,178.00) scale(1.0000)"><path d="M -30.60,14.82 A 34.00,34.00 0 1,1 30.60,14.82 L 0,78.00 Z" fill="#DD5127"/><circle cx="0" cy="0" r="13.0" fill="#1B2B45"/></g><g transform="translate(5.50,0)"><path d="M258.175 305.525 263.6 324.0H266.3L269.35 311.775L272.325 324.0H275.05L280.45 305.525H276.95L273.675 318.425L270.575 305.525H268.075L264.925 318.425L261.675 305.525Z M293.2 324.0H296.625V316.25H303.225V324.0H306.65V305.525H303.225V312.975H296.625V305.525H293.2Z M321.2 324.0H331.125V320.725H324.625V316.425H330.85V313.15H324.625V308.8H331.125V305.525H321.2Z M345.2 324.0H348.625V316.925L353.475 324.0H357.7L352.7 317.175C356.025 316.35 357.525 314.325 357.525 311.45C357.525 309.575 356.85 307.975 355.575 306.9C354.375 305.875 353.05 305.525 350.525 305.525H345.2ZM348.625 314.35V308.8H350.15C353.4 308.8 354.075 309.9 354.075 311.55C354.075 313.5 352.95 314.35 350.3 314.35Z M370.7 324.0H380.625V320.725H374.125V316.425H380.35V313.15H374.125V308.8H380.625V305.525H370.7Z" fill="#DD5127"/></g><g transform="translate(1.56,0)"><path d="M81.32 391.416C81.32 413.88 99.51999999999998 431.352 123.12799999999999 431.352C145.79999999999998 431.352 163.272 413.568 163.272 392.664V390.79200000000003H113.03999999999999V404.104H144.86399999999998C140.70399999999998 412.632 132.384 417.624 122.29599999999999 417.624C107.21599999999998 417.624 95.67199999999998 406.288 95.67199999999998 391.624C95.67199999999998 377.168 106.27999999999999 365.52 121.46399999999998 365.52C130.408 365.52 137.79199999999997 369.056 142.57599999999996 375.712H159.32C154.32799999999997 361.88 138.51999999999998 351.79200000000003 121.77599999999998 351.79200000000003C99.31199999999998 351.79200000000003 81.32 369.368 81.32 391.416Z M171.8 391.624C171.8 413.776 189.68800000000002 431.352 212.256 431.352C234.61599999999999 431.352 251.88 413.984 251.88 391.52C251.88 369.576 234.304 351.79200000000003 212.36 351.79200000000003C189.48000000000002 351.79200000000003 171.8 369.16 171.8 391.624ZM186.15200000000002 391.624C186.15200000000002 376.752 197.38400000000001 365.52 212.15200000000002 365.52C226.4 365.52 237.52800000000002 376.96 237.52800000000002 391.728C237.52800000000002 406.496 226.712 417.624 212.15200000000002 417.624C197.592 417.624 186.15200000000002 406.184 186.15200000000002 391.624Z M262.28000000000003 391.416C262.28000000000003 413.88 280.48 431.352 304.088 431.352C326.76 431.352 344.232 413.568 344.232 392.664V390.79200000000003H294.0V404.104H325.824C321.66400000000004 412.632 313.34400000000005 417.624 303.25600000000003 417.624C288.17600000000004 417.624 276.632 406.288 276.632 391.624C276.632 377.168 287.24 365.52 302.42400000000004 365.52C311.36800000000005 365.52 318.752 369.056 323.536 375.712H340.28000000000003C335.288 361.88 319.48 351.79200000000003 302.73600000000005 351.79200000000003C280.27200000000005 351.79200000000003 262.28000000000003 369.368 262.28000000000003 391.416Z M352.76000000000005 391.416C352.76000000000005 413.88 370.96000000000004 431.352 394.56800000000004 431.352C417.24 431.352 434.71200000000005 413.568 434.71200000000005 392.664V390.79200000000003H384.48V404.104H416.30400000000003C412.14400000000006 412.632 403.82400000000007 417.624 393.73600000000005 417.624C378.65600000000006 417.624 367.112 406.288 367.112 391.624C367.112 377.168 377.72 365.52 392.90400000000005 365.52C401.84800000000007 365.52 409.232 369.056 414.016 375.712H430.76000000000005C425.76800000000003 361.88 409.96000000000004 351.79200000000003 393.21600000000007 351.79200000000003C370.75200000000007 351.79200000000003 352.76000000000005 369.368 352.76000000000005 391.416Z M441.5760000000001 408.056C442.82400000000007 422.616 453.3280000000001 431.352 466.84800000000007 431.352C480.68000000000006 431.352 491.39200000000005 420.64 491.39200000000005 406.704C491.39200000000005 396.304 487.12800000000004 389.544 471.5280000000001 383.72C464.24800000000005 381.016 464.0400000000001 380.912 463.00000000000006 380.288C460.19200000000006 378.52 458.73600000000005 376.128 458.73600000000005 373.32C458.73600000000005 368.744 461.96000000000004 365.52 466.64000000000004 365.52C471.42400000000004 365.52 474.33600000000007 368.432 474.75200000000007 373.632H489.52000000000004C488.79200000000003 360.112 479.12000000000006 351.79200000000003 466.7440000000001 351.79200000000003C454.36800000000005 351.79200000000003 444.38400000000007 361.464 444.38400000000007 373.632C444.38400000000007 383.304 450.10400000000004 390.688 460.40000000000003 394.536C470.59200000000004 398.384 471.42400000000004 398.696 473.71200000000005 400.464C476.00000000000006 402.232 477.24800000000005 405.144 477.24800000000005 408.264C477.24800000000005 413.776 472.98400000000004 417.624 466.84800000000007 417.624C460.5040000000001 417.624 457.07200000000006 414.504 456.44800000000004 408.056Z M497.63200000000006 353.144 522.904 401.608V430.0H537.152V401.608L562.4240000000001 353.144H547.032L530.08 388.504L513.024 353.144Z" fill="#F2E8D5"/></g><rect x="78.20" y="458.0" width="483.60" height="2" fill="#DD5127"/><g transform="translate(7.50,0)"><path d="M264.25 492.725C264.25 498.125 268.625 502.325 274.3 502.325C279.75 502.325 283.95 498.05 283.95 493.025V492.575H271.875V495.775H279.525C278.525 497.825 276.525 499.025 274.1 499.025C270.475 499.025 267.7 496.3 267.7 492.775C267.7 489.3 270.25 486.5 273.9 486.5C276.05 486.5 277.825 487.35 278.975 488.95H283.0C281.8 485.625 278.0 483.2 273.975 483.2C268.575 483.2 264.25 487.425 264.25 492.725Z M300.25 492.775C300.25 498.1 304.55 502.325 309.975 502.325C315.35 502.325 319.5 498.15 319.5 492.75C319.5 487.475 315.275 483.2 310.0 483.2C304.5 483.2 300.25 487.375 300.25 492.775ZM303.7 492.775C303.7 489.2 306.4 486.5 309.95 486.5C313.375 486.5 316.05 489.25 316.05 492.8C316.05 496.35 313.45 499.025 309.95 499.025C306.45 499.025 303.7 496.275 303.7 492.775Z M337.2 502.0H347.125V498.725H340.625V494.425H346.85V491.15H340.625V486.8H347.125V483.525H337.2Z M363.85 496.725C364.15 500.225 366.675 502.325 369.925 502.325C373.25 502.325 375.825 499.75 375.825 496.4C375.825 493.9 374.8 492.275 371.05 490.875C369.3 490.225 369.25 490.2 369.0 490.05C368.325 489.625 367.975 489.05 367.975 488.375C367.975 487.275 368.75 486.5 369.875 486.5C371.025 486.5 371.725 487.2 371.825 488.45H375.375C375.2 485.2 372.875 483.2 369.9 483.2C366.925 483.2 364.525 485.525 364.525 488.45C364.525 490.775 365.9 492.55 368.375 493.475C370.825 494.4 371.025 494.475 371.575 494.9C372.125 495.325 372.425 496.025 372.425 496.775C372.425 498.1 371.4 499.025 369.925 499.025C368.4 499.025 367.575 498.275 367.425 496.725Z" fill="#DD5127"/></g></svg>