<svg xmlns="http://www.w3.org/2000/svg" width="1200" height="630" viewBox="0 0 1200 630"><defs>
      <linearGradient id="sky" x1="0" y1="0" x2="0" y2="1">
        <stop offset="0%" stop-color="#0E1626"/>
        <stop offset="65%" stop-color="#1B2B45"/>
      </linearGradient>
      <radialGradient id="glow" cx="50%" cy="100%" r="75%">
        <stop offset="0%" stop-color="#DD5127" stop-opacity="0.34"/>
        <stop offset="100%" stop-color="#DD5127" stop-opacity="0"/>
      </radialGradient>
    </defs><rect width="1200" height="630" fill="url(#sky)"/><ellipse cx="600.0" cy="623.7" rx="744.0" ry="283.5" fill="url(#glow)"/><circle cx="545.7" cy="105.7" r="2.31" fill="#F2E8D5" opacity="0.58"/><circle cx="608.9" cy="109.8" r="1.42" fill="#F2E8D5" opacity="0.61"/><circle cx="748.1" cy="139.8" r="1.31" fill="#F2E8D5" opacity="0.50"/><circle cx="133.4" cy="142.2" r="2.03" fill="#F2E8D5" opacity="0.37"/><circle cx="1149.7" cy="164.9" r="1.98" fill="#F2E8D5" opacity="0.66"/><circle cx="209.5" cy="26.2" r="1.83" fill="#F2E8D5" opacity="0.38"/><circle cx="246.8" cy="59.3" r="1.24" fill="#F2E8D5" opacity="0.58"/><circle cx="532.2" cy="147.0" r="1.82" fill="#F2E8D5" opacity="0.67"/><circle cx="599.7" cy="120.7" r="1.75" fill="#F2E8D5" opacity="0.49"/><circle cx="1167.3" cy="169.4" r="2.21" fill="#F2E8D5" opacity="0.70"/><circle cx="389.4" cy="57.5" r="1.55" fill="#F2E8D5" opacity="0.39"/><circle cx="903.6" cy="82.5" r="2.22" fill="#F2E8D5" opacity="0.54"/><circle cx="1122.2" cy="147.7" r="1.20" fill="#F2E8D5" opacity="0.45"/><circle cx="1067.7" cy="92.6" r="2.38" fill="#F2E8D5" opacity="0.55"/><circle cx="113.3" cy="115.9" r="2.13" fill="#F2E8D5" opacity="0.48"/><circle cx="129.3" cy="72.6" r="2.36" fill="#F2E8D5" opacity="0.73"/><circle cx="164.5" cy="60.0" r="1.32" fill="#F2E8D5" opacity="0.38"/><circle cx="938.6" cy="49.9" r="1.87" fill="#F2E8D5" opacity="0.57"/><path d="M 0,630 L 0,519.1 L 40.0,524.3 L 80.0,528.3 L 120.0,531.0 L 160.0,532.4 L 200.0,532.3 L 240.0,531.0 L 280.0,528.7 L 320.0,525.5 L 360.0,521.9 L 400.0,518.0 L 440.0,514.3 L 480.0,511.0 L 520.0,508.1 L 560.0,505.8 L 600.0,504.1 L 640.0,502.8 L 680.0,501.9 L 720.0,501.1 L 760.0,500.3 L 800.0,499.2 L 840.0,497.8 L 880.0,496.0 L 920.0,493.7 L 960.0,491.1 L 1000.0,488.3 L 1040.0,485.7 L 1080.0,483.3 L 1120.0,481.6 L 1160.0,480.7 L 1200.0,481.0 L 1200,630 Z" fill="#2A3E64" opacity="0.85"/><path d="M 0,630 L 0,558.1 L 40.0,552.8 L 80.0,547.7 L 120.0,543.1 L 160.0,539.2 L 200.0,536.0 L 240.0,533.7 L 280.0,532.2 L 320.0,531.1 L 360.0,530.5 L 400.0,529.9 L 440.0,529.2 L 480.0,528.2 L 520.0,526.8 L 560.0,525.0 L 600.0,522.8 L 640.0,520.4 L 680.0,518.2 L 720.0,516.2 L 760.0,514.9 L 800.0,514.6 L 840.0,515.4 L 880.0,517.6 L 920.0,521.2 L 960.0,526.1 L 1000.0,532.1 L 1040.0,539.0 L 1080.0,546.3 L 1120.0,553.6 L 1160.0,560.5 L 1200.0,566.5 L 1200,630 Z" fill="#24365A" opacity="0.92"/><path d="M 0,630 L 0,564.9 L 40.0,565.0 L 80.0,564.9 L 120.0,564.6 L 160.0,564.0 L 200.0,563.2 L 240.0,562.3 L 280.0,561.4 L 320.0,560.6 L 360.0,560.3 L 400.0,560.5 L 440.0,561.5 L 480.0,563.3 L 520.0,565.9 L 560.0,569.4 L 600.0,573.5 L 640.0,578.1 L 680.0,582.9 L 720.0,587.6 L 760.0,591.9 L 800.0,595.6 L 840.0,598.2 L 880.0,599.8 L 920.0,600.1 L 960.0,599.2 L 1000.0,597.1 L 1040.0,594.0 L 1080.0,590.1 L 1120.0,585.7 L 1160.0,581.2 L 1200.0,576.7 L 1200,630 Z" fill="#0E1626" opacity="1.0"/><circle cx="192.0" cy="506.6" r="7.3" fill="#0E1626"/><path d="M 184.7,512.8 L 199.3,512.8 L 202.6,565.4 L 181.4,565.4 Z" fill="#0E1626"/><circle cx="223.2" cy="525.5" r="4.8" fill="#0E1626"/><path d="M 218.4,529.6 L 228.1,529.6 L 230.3,564.7 L 216.2,564.7 Z" fill="#0E1626"/><circle cx="251.4" cy="492.8" r="8.8" fill="#0E1626"/><path d="M 242.6,500.3 L 260.2,500.3 L 264.2,564.0 L 238.6,564.0 Z" fill="#0E1626"/><rect x="246.6" y="502.7" width="13.2" height="22.4" rx="2.4" fill="#0E1626"/><circle cx="284.6" cy="517.9" r="5.6" fill="#0E1626"/><path d="M 279.0,522.7 L 290.2,522.7 L 292.8,563.3 L 276.4,563.3 Z" fill="#0E1626"/><circle cx="313.7" cy="533.4" r="3.6" fill="#0E1626"/><path d="M 310.1,536.5 L 317.4,536.5 L 319.0,562.7 L 308.5,562.7 Z" fill="#0E1626"/><rect x="833.0" y="573.9" width="62" height="18.0" rx="3" fill="#0E1626"/><rect x="833.0" y="569.5" width="38.4" height="5.5" rx="2" fill="#0E1626"/><circle cx="845.4" cy="600.2" r="4.9" fill="#0E1626"/><circle cx="882.6" cy="600.2" r="4.9" fill="#0E1626"/><g transform="translate(2.55,0)"><path d="M418.87350000000004 232.0 422.83450000000005 219.641H425.2825L429.22650000000004 232.0H427.22900000000004L426.13250000000005 228.328L427.2205000000001 229.0845H421.31300000000005L421.95050000000003 227.4695H426.7275L426.124 228.3025L424.8235 223.91649999999998L424.08400000000006 221.086H424.016L423.29350000000005 223.91649999999998L420.87950000000006 232.0Z M437.28450000000004 232.0 436.90200000000004 230.232H438.57650000000007Q439.56250000000006 230.232 440.32325000000003 229.756Q441.08400000000006 229.28 441.5132500000001 228.28975Q441.94250000000005 227.2995 441.94250000000005 225.761Q441.94250000000005 224.1375 441.5472500000001 223.1855Q441.15200000000004 222.2335 440.39975000000004 221.82125Q439.64750000000004 221.409 438.56800000000004 221.409H436.83400000000006L437.28450000000004 219.641H438.4320000000001Q440.99050000000005 219.641 442.4312500000001 221.09875Q443.87200000000007 222.5565 443.87200000000007 225.744Q443.87200000000007 227.8095 443.15375000000006 229.19925Q442.43550000000005 230.589 441.21150000000006 231.2945Q439.98750000000007 232.0 438.44900000000007 232.0ZM435.39750000000004 232.0V219.641H437.28450000000004V232.0Z M453.3325000000001 232.0 449.8645000000001 219.641H452.0660000000001L454.07200000000006 227.92849999999999L454.58200000000005 230.215H454.7180000000001L455.2365000000001 227.92849999999999L457.2340000000001 219.641H459.43550000000005L455.97600000000006 232.0Z M466.1505000000001 232.0V219.641H473.4435000000001V221.256H467.18750000000006L468.0375000000001 220.4655V225.2935L467.18750000000006 224.707H472.7890000000001V226.322H467.5700000000001L468.0375000000001 225.659V231.337L467.18750000000006 230.3425H473.74950000000007V232.0Z M481.2550000000001 232.0V219.641H483.5160000000001L486.6355000000001 227.138L487.6385000000001 229.739H487.7065000000001L487.4090000000001 227.053V219.641H489.2450000000001V232.0H486.9840000000001L483.89850000000007 224.5795L482.9210000000001 222.021H482.85300000000007L483.09100000000007 224.7835V232.0Z M499.5980000000001 232.0V222.0465Q499.5980000000001 221.7745 499.7170000000001 221.59175Q499.8360000000001 221.409 500.0485000000001 221.341H496.3000000000001V219.641H504.8000000000001V221.341H501.5020000000001V232.0Z M515.8925000000002 232.17Q514.6600000000001 232.17 513.7207500000002 231.72375Q512.7815000000002 231.2775 512.2545000000001 230.2745Q511.72750000000013 229.2715 511.72750000000013 227.614V219.624H513.6315000000001V227.291Q513.6315000000001 228.1665 513.8015 228.76575000000003Q513.9715000000001 229.365 514.2817500000001 229.72625Q514.5920000000001 230.0875 515.0042500000002 230.24900000000002Q515.4165000000002 230.4105 515.9010000000001 230.4105Q516.3515000000001 230.4105 516.7425000000001 230.24900000000002Q517.1335000000001 230.0875 517.4310000000002 229.72625Q517.7285000000002 229.365 517.8985000000001 228.76575000000003Q518.0685000000001 228.1665 518.0685000000001 227.291V219.641H519.9725000000001V227.614Q519.9725000000001 229.2715 519.4370000000001 230.2745Q518.9015000000002 231.2775 517.9792500000001 231.72375Q517.0570000000001 232.17 515.8925000000002 232.17Z M533.8105000000002 232.0 530.9800000000001 227.121H529.0165000000002L528.4555000000001 226.9935L528.7020000000002 225.6845V225.4125H530.9970000000002Q531.7620000000002 225.4125 532.2125000000002 225.1405Q532.6630000000002 224.8685 532.8627500000002 224.39249999999998Q533.0625000000002 223.91649999999998 533.0625000000002 223.3045Q533.0625000000002 222.548 532.8160000000003 222.11025Q532.5695000000002 221.6725 532.0807500000002 221.477Q531.5920000000002 221.2815 530.8525000000002 221.2815L529.1695000000002 221.273L529.1525000000001 220.882L528.4470000000002 219.641Q528.8380000000002 219.641 529.2417500000001 219.641Q529.6455000000002 219.641 530.0237500000002 219.641Q530.4020000000002 219.641 530.7165000000002 219.641Q532.9010000000002 219.641 533.9592500000001 220.47825Q535.0175000000002 221.3155 535.0175000000002 223.143Q535.0175000000002 223.738 534.8687500000001 224.3415Q534.7200000000001 224.945 534.3757500000002 225.47199999999998Q534.0315000000002 225.999 533.4577500000001 226.373Q532.8840000000001 226.747 532.0340000000002 226.8915L531.8555000000002 226.6365Q532.2380000000002 226.6365 532.4760000000001 226.69175Q532.7140000000002 226.747 532.9052500000003 226.93400000000003Q533.0965000000002 227.121 533.3260000000001 227.529L535.9015000000002 232.0ZM527.3505000000002 232.0V219.641H529.2205000000001V232.0Z M542.6505000000003 232.0V219.641H549.9435000000002V221.256H543.6875000000002L544.5375000000003 220.4655V225.2935L543.6875000000002 224.707H549.2890000000002V226.322H544.0700000000003L544.5375000000003 225.659V231.337L543.6875000000002 230.3425H550.2495000000002V232.0Z M561.8350000000003 232.17Q560.5345000000003 232.17 559.5400000000003 231.77474999999998Q558.5455000000003 231.3795 557.9802500000003 230.49975Q557.4150000000003 229.62 557.3895000000003 228.175H559.2425000000003Q559.2680000000004 229.076 559.6505000000004 229.5775Q560.0330000000004 230.079 560.6365000000003 230.27875Q561.2400000000004 230.4785 561.9200000000003 230.4785Q562.6765000000004 230.4785 563.1950000000004 230.249Q563.7135000000003 230.0195 563.9812500000003 229.64125Q564.2490000000004 229.263 564.2490000000004 228.838Q564.2490000000004 228.209 563.9600000000003 227.82225Q563.6710000000003 227.4355 563.0590000000003 227.155Q562.4470000000003 226.8745 561.4865000000003 226.5855Q560.4580000000003 226.271 559.6335000000004 225.74824999999998Q558.8090000000003 225.2255 558.3330000000003 224.47750000000002Q557.8570000000003 223.7295 557.8570000000003 222.7605Q557.8570000000003 221.6385 558.4180000000003 220.90325Q558.9790000000003 220.168 559.9012500000003 219.80675000000002Q560.8235000000003 219.4455 561.8860000000003 219.4455Q563.4925000000003 219.4455 564.5380000000002 220.321Q565.5835000000003 221.1965 565.7960000000003 222.9985H564.0195000000003Q563.9430000000003 222.412 563.6625000000004 221.9955Q563.3820000000003 221.579 562.9187500000003 221.358Q562.4555000000004 221.137 561.8010000000003 221.137Q560.8660000000003 221.137 560.2710000000003 221.52375Q559.6760000000003 221.9105 559.6760000000003 222.684Q559.6760000000003 223.2195 559.8545000000004 223.61475000000002Q560.0330000000004 224.01 560.5685000000003 224.34575Q561.1040000000003 224.6815 562.1665000000003 225.0555Q562.9315000000004 225.319 563.6370000000004 225.61225Q564.3425000000003 225.9055 564.8950000000003 226.305Q565.4475000000003 226.7045 565.7705000000003 227.28674999999998Q566.0935000000003 227.869 566.0935000000003 228.7275Q566.1020000000003 229.7985 565.5495000000003 230.572Q564.9970000000003 231.3455 564.0322500000003 231.75775Q563.0675000000003 232.17 561.8350000000003 232.17Z M587.1735000000003 232.0 591.1345000000003 219.641H593.5825000000003L597.5265000000004 232.0H595.5290000000003L594.4325000000003 228.328L595.5205000000003 229.0845H589.6130000000004L590.2505000000003 227.4695H595.0275000000004L594.4240000000003 228.3025L593.1235000000004 223.91649999999998L592.3840000000004 221.086H592.3160000000004L591.5935000000003 223.91649999999998L589.1795000000003 232.0Z M607.7180000000004 232.2465Q606.3750000000005 232.2465 605.3847500000004 231.44324999999998Q604.3945000000004 230.64 603.8547500000004 229.195Q603.3150000000004 227.75 603.3150000000004 225.80349999999999Q603.3150000000004 223.823 603.8802500000004 222.39075Q604.4455000000004 220.9585 605.4697500000004 220.18075Q606.4940000000004 219.403 607.8625000000004 219.403Q609.0440000000004 219.403 609.9237500000004 219.8705Q610.8035000000004 220.338 611.3007500000004 221.34949999999998Q611.7980000000005 222.361 611.8320000000004 223.993H609.8345000000004Q609.7835000000005 222.9475 609.5582500000005 222.32274999999998Q609.3330000000004 221.698 608.9250000000004 221.42175Q608.5170000000004 221.1455 607.8965000000004 221.1455Q607.0125000000004 221.1455 606.4260000000004 221.6385Q605.8395000000004 222.1315 605.5505000000004 223.16Q605.2615000000004 224.1885 605.2615000000004 225.80349999999999Q605.2615000000004 227.937 605.9245000000004 229.22475Q606.5875000000004 230.5125 607.8455000000004 230.5125Q608.5425000000004 230.5125 608.9675000000004 230.2745Q609.3925000000004 230.0365 609.6050000000005 229.586Q609.8175000000005 229.1355 609.8600000000004 228.4895H611.7725000000004Q611.7215000000004 229.569 611.3857500000004 230.29575Q611.0500000000004 231.0225 610.4932500000004 231.45175Q609.9365000000004 231.881 609.2267500000004 232.06375Q608.5170000000004 232.2465 607.7180000000004 232.2465Z M625.6105000000005 232.0 622.7800000000004 227.121H620.8165000000005L620.2555000000004 226.9935L620.5020000000005 225.6845V225.4125H622.7970000000005Q623.5620000000005 225.4125 624.0125000000005 225.1405Q624.4630000000005 224.8685 624.6627500000005 224.39249999999998Q624.8625000000005 223.91649999999998 624.8625000000005 223.3045Q624.8625000000005 222.548 624.6160000000004 222.11025Q624.3695000000005 221.6725 623.8807500000005 221.477Q623.3920000000005 221.2815 622.6525000000005 221.2815L620.9695000000005 221.273L620.9525000000004 220.882L620.2470000000005 219.641Q620.6380000000005 219.641 621.0417500000005 219.641Q621.4455000000005 219.641 621.8237500000005 219.641Q622.2020000000005 219.641 622.5165000000005 219.641Q624.7010000000005 219.641 625.7592500000005 220.47825Q626.8175000000005 221.3155 626.8175000000005 223.143Q626.8175000000005 223.738 626.6687500000005 224.3415Q626.5200000000004 224.945 626.1757500000004 225.47199999999998Q625.8315000000005 225.999 625.2577500000004 226.373Q624.6840000000004 226.747 623.8340000000005 226.8915L623.6555000000005 226.6365Q624.0380000000005 226.6365 624.2760000000005 226.69175Q624.5140000000005 226.747 624.7052500000004 226.93400000000003Q624.8965000000005 227.121 625.1260000000004 227.529L627.7015000000005 232.0ZM619.1505000000005 232.0V219.641H621.0205000000004V232.0Z M638.2500000000006 232.255Q636.8985000000006 232.255 635.9040000000006 231.51125000000002Q634.9095000000005 230.7675 634.3655000000006 229.31825Q633.8215000000006 227.869 633.8215000000006 225.7525Q633.8215000000006 222.6755 635.0242500000006 221.035Q636.2270000000005 219.3945 638.2500000000006 219.3945Q640.2985000000006 219.3945 641.4885000000006 221.035Q642.6785000000006 222.6755 642.6785000000006 225.7525Q642.6785000000006 227.869 642.1387500000005 229.31825Q641.5990000000005 230.7675 640.6087500000006 231.51125000000002Q639.6185000000005 232.255 638.2500000000006 232.255ZM638.2500000000006 230.4955Q639.4485000000005 230.4955 640.0987500000006 229.40325Q640.7490000000006 228.311 640.7490000000006 225.7525Q640.7490000000006 223.2535 640.0987500000006 222.20375Q639.4485000000005 221.154 638.2500000000006 221.154Q637.0685000000005 221.154 636.4097500000005 222.20375Q635.7510000000005 223.2535 635.7510000000005 225.7525Q635.7510000000005 228.311 636.4097500000005 229.40325Q637.0685000000005 230.4955 638.2500000000006 230.4955Z M653.6350000000006 232.17Q652.3345000000006 232.17 651.3400000000006 231.77474999999998Q650.3455000000006 231.3795 649.7802500000006 230.49975Q649.2150000000006 229.62 649.1895000000006 228.175H651.0425000000006Q651.0680000000007 229.076 651.4505000000006 229.5775Q651.8330000000007 230.079 652.4365000000007 230.27875Q653.0400000000006 230.4785 653.7200000000006 230.4785Q654.4765000000007 230.4785 654.9950000000006 230.249Q655.5135000000006 230.0195 655.7812500000007 229.64125Q656.0490000000007 229.263 656.0490000000007 228.838Q656.0490000000007 228.209 655.7600000000007 227.82225Q655.4710000000006 227.4355 654.8590000000006 227.155Q654.2470000000006 226.8745 653.2865000000006 226.5855Q652.2580000000006 226.271 651.4335000000005 225.74824999999998Q650.6090000000006 225.2255 650.1330000000006 224.47750000000002Q649.6570000000006 223.7295 649.6570000000006 222.7605Q649.6570000000006 221.6385 650.2180000000005 220.90325Q650.7790000000006 220.168 651.7012500000005 219.80675000000002Q652.6235000000006 219.4455 653.6860000000006 219.4455Q655.2925000000006 219.4455 656.3380000000006 220.321Q657.3835000000006 221.1965 657.5960000000006 222.9985H655.8195000000006Q655.7430000000006 222.412 655.4625000000005 221.9955Q655.1820000000006 221.579 654.7187500000007 221.358Q654.2555000000007 221.137 653.6010000000006 221.137Q652.6660000000006 221.137 652.0710000000006 221.52375Q651.4760000000006 221.9105 651.4760000000006 222.684Q651.4760000000006 223.2195 651.6545000000006 223.61475000000002Q651.8330000000007 224.01 652.3685000000006 224.34575Q652.9040000000006 224.6815 653.9665000000006 225.0555Q654.7315000000007 225.319 655.4370000000006 225.61225Q656.1425000000006 225.9055 656.6950000000006 226.305Q657.2475000000006 226.7045 657.5705000000006 227.28674999999998Q657.8935000000006 227.869 657.8935000000006 228.7275Q657.9020000000006 229.7985 657.3495000000006 230.572Q656.7970000000006 231.3455 655.8322500000006 231.75775Q654.8675000000006 232.17 653.6350000000006 232.17Z M668.9350000000006 232.17Q667.6345000000007 232.17 666.6400000000007 231.77474999999998Q665.6455000000007 231.3795 665.0802500000007 230.49975Q664.5150000000007 229.62 664.4895000000007 228.175H666.3425000000007Q666.3680000000007 229.076 666.7505000000008 229.5775Q667.1330000000007 230.079 667.7365000000007 230.27875Q668.3400000000007 230.4785 669.0200000000007 230.4785Q669.7765000000007 230.4785 670.2950000000008 230.249Q670.8135000000007 230.0195 671.0812500000006 229.64125Q671.3490000000007 229.263 671.3490000000007 228.838Q671.3490000000007 228.209 671.0600000000006 227.82225Q670.7710000000006 227.4355 670.1590000000007 227.155Q669.5470000000007 226.8745 668.5865000000007 226.5855Q667.5580000000007 226.271 666.7335000000007 225.74824999999998Q665.9090000000007 225.2255 665.4330000000007 224.47750000000002Q664.9570000000007 223.7295 664.9570000000007 222.7605Q664.9570000000007 221.6385 665.5180000000007 220.90325Q666.0790000000006 220.168 667.0012500000007 219.80675000000002Q667.9235000000007 219.4455 668.9860000000007 219.4455Q670.5925000000007 219.4455 671.6380000000006 220.321Q672.6835000000007 221.1965 672.8960000000006 222.9985H671.1195000000007Q671.0430000000007 222.412 670.7625000000007 221.9955Q670.4820000000007 221.579 670.0187500000006 221.358Q669.5555000000007 221.137 668.9010000000006 221.137Q667.9660000000007 221.137 667.3710000000007 221.52375Q666.7760000000006 221.9105 666.7760000000006 222.684Q666.7760000000006 223.2195 666.9545000000007 223.61475000000002Q667.1330000000007 224.01 667.6685000000007 224.34575Q668.2040000000006 224.6815 669.2665000000006 225.0555Q670.0315000000007 225.319 670.7370000000008 225.61225Q671.4425000000007 225.9055 671.9950000000007 226.305Q672.5475000000007 226.7045 672.8705000000007 227.28674999999998Q673.1935000000007 227.869 673.1935000000007 228.7275Q673.2020000000007 229.7985 672.6495000000007 230.572Q672.0970000000007 231.3455 671.1322500000007 231.75775Q670.1675000000007 232.17 668.9350000000006 232.17Z M698.4980000000007 232.0V222.0465Q698.4980000000007 221.7745 698.6170000000006 221.59175Q698.7360000000007 221.409 698.9485000000006 221.341H695.2000000000007V219.641H703.7000000000007V221.341H700.4020000000007V232.0Z M716.8410000000008 232.0V219.641H718.7450000000008V232.0ZM710.7550000000008 232.0V219.641H712.6590000000008V232.0ZM712.0895000000007 226.5005V224.8005H717.1470000000007L717.1215000000008 226.5005Z M726.2505000000009 232.0V219.641H733.5435000000008V221.256H727.2875000000008L728.1375000000008 220.4655V225.2935L727.2875000000008 224.707H732.8890000000008V226.322H727.6700000000009L728.1375000000008 225.659V231.337L727.2875000000008 230.3425H733.8495000000008V232.0Z M760.6925000000009 232.17Q759.4600000000008 232.17 758.5207500000008 231.72375Q757.5815000000009 231.2775 757.0545000000009 230.2745Q756.5275000000008 229.2715 756.5275000000008 227.614V219.624H758.4315000000008V227.291Q758.4315000000008 228.1665 758.6015000000009 228.76575000000003Q758.7715000000009 229.365 759.0817500000009 229.72625Q759.3920000000008 230.0875 759.8042500000008 230.24900000000002Q760.2165000000009 230.4105 760.7010000000008 230.4105Q761.1515000000009 230.4105 761.5425000000009 230.24900000000002Q761.9335000000009 230.0875 762.2310000000009 229.72625Q762.5285000000009 229.365 762.6985000000009 228.76575000000003Q762.8685000000008 228.1665 762.8685000000008 227.291V219.641H764.7725000000008V227.614Q764.7725000000008 229.2715 764.2370000000009 230.2745Q763.7015000000009 231.2775 762.779250000001 231.72375Q761.8570000000009 232.17 760.6925000000009 232.17Z M774.0970000000009 228.617 773.8505000000009 226.6535 776.060500000001 223.5 778.6785000000009 219.641H780.931000000001L776.8595000000009 225.3445L776.3410000000009 225.8375ZM772.2695000000009 232.0V219.641H774.156500000001V232.0ZM779.0525000000009 232.0 775.3805000000009 225.353 776.9190000000009 224.4435 781.1435000000009 232.0Z" fill="#DD5127"/></g><g transform="translate(374.02,312.00)"><path d="M10.296000000000001 -18.348000000000003H28.578000000000003L28.71 -16.17H10.098ZM13.233 -0.924Q13.233 -0.528 12.936 -0.264Q12.639000000000001 0.0 12.012 0.0H1.584Q0.9570000000000001 0.0 0.66 -0.264Q0.363 -0.528 0.363 -0.924Q0.363 -1.254 0.5609999999999999 -1.4685000000000001Q0.759 -1.683 1.1880000000000002 -1.881L2.343 -2.31Q3.366 -2.7390000000000003 4.1415 -3.6960000000000006Q4.917 -4.6530000000000005 5.61 -6.831L16.203 -40.92Q16.632 -42.306000000000004 16.3515 -43.0155Q16.071 -43.725 14.982000000000001 -44.121Q14.322000000000001 -44.418 14.025000000000002 -44.6655Q13.728000000000002 -44.913000000000004 13.728000000000002 -45.276Q13.728000000000002 -45.738 14.041500000000001 -45.969Q14.355 -46.2 14.982000000000001 -46.2H29.634Q30.261000000000003 -46.2 30.5745 -45.969Q30.888 -45.738 30.888 -45.276Q30.888 -44.913000000000004 30.6075 -44.649Q30.327 -44.385000000000005 29.700000000000003 -44.154Q28.842000000000002 -43.956 28.677 -43.5435Q28.512 -43.131 28.842000000000002 -42.141000000000005L40.986000000000004 -4.719Q41.382000000000005 -3.498 41.943000000000005 -2.8875Q42.504000000000005 -2.277 43.461 -2.0460000000000003Q44.088 -1.8150000000000002 44.3025 -1.5675000000000001Q44.517 -1.32 44.517 -0.924Q44.517 -0.528 44.203500000000005 -0.264Q43.89 0.0 43.263000000000005 0.0H28.71Q28.083000000000002 0.0 27.7695 -0.264Q27.456000000000003 -0.528 27.456000000000003 -0.924Q27.456000000000003 -1.2870000000000001 27.687000000000005 -1.5015Q27.918000000000003 -1.7160000000000002 28.413 -1.881L30.162000000000003 -2.2110000000000003Q30.987000000000002 -2.475 31.0695 -2.9865000000000004Q31.152 -3.498 30.789 -4.587000000000001L18.645 -42.471000000000004L19.602 -43.593L8.283000000000001 -7.062Q7.854 -5.7090000000000005 8.019 -4.785Q8.184000000000001 -3.861 8.91 -3.2670000000000003Q9.636000000000001 -2.673 10.89 -2.2110000000000003L12.309000000000001 -1.881Q12.771 -1.7160000000000002 13.002 -1.5015Q13.233 -1.2870000000000001 13.233 -0.924Z M72.96300000000001 -3.762Q72.96300000000001 -3.069 73.26 -2.673Q73.557 -2.277 74.18400000000001 -2.2110000000000003L77.715 -1.749Q78.21000000000001 -1.7160000000000002 78.441 -1.4685000000000001Q78.67200000000001 -1.221 78.67200000000001 -0.8580000000000001Q78.67200000000001 0.0 77.583 0.0H61.38000000000001Q60.885000000000005 0.0 60.6045 -0.21450000000000002Q60.324000000000005 -0.42900000000000005 60.324000000000005 -0.792Q60.324000000000005 -1.1880000000000002 60.55500000000001 -1.4025Q60.78600000000001 -1.617 61.248000000000005 -1.749L63.162000000000006 -2.112Q63.822 -2.31 64.119 -2.673Q64.41600000000001 -3.036 64.41600000000001 -3.6300000000000003V-25.905Q64.41600000000001 -26.367 64.185 -26.680500000000002Q63.95400000000001 -26.994 63.36000000000001 -27.192L60.75300000000001 -27.852Q60.093 -28.116 59.86200000000001 -28.347Q59.63100000000001 -28.578000000000003 59.63100000000001 -28.908Q59.63100000000001 -29.238000000000003 59.89500000000001 -29.4525Q60.159000000000006 -29.667 60.654 -29.667H65.736L64.44900000000001 -28.941000000000003V-29.700000000000003Q64.44900000000001 -30.657 63.97050000000001 -31.597500000000004Q63.492000000000004 -32.538000000000004 62.8485 -33.5775Q62.205000000000005 -34.617000000000004 61.71000000000001 -35.904Q61.215 -37.191 61.215 -38.841Q61.215 -42.9 63.92100000000001 -45.292500000000004Q66.62700000000001 -47.685 71.346 -47.685Q74.349 -47.685 76.39500000000001 -46.7115Q78.441 -45.738 79.464 -44.121Q80.48700000000001 -42.504000000000005 80.48700000000001 -40.59Q80.48700000000001 -38.577000000000005 79.44750000000002 -37.53750000000001Q78.40800000000002 -36.498000000000005 76.75800000000001 -36.498000000000005Q75.00900000000001 -36.498000000000005 73.92000000000002 -37.6365Q72.831 -38.775 72.831 -40.689V-43.230000000000004Q72.831 -44.649 72.105 -45.35850000000001Q71.379 -46.068000000000005 70.05900000000001 -46.068000000000005Q68.244 -46.035000000000004 67.2705 -44.88Q66.29700000000001 -43.725 66.29700000000001 -41.613Q66.29700000000001 -39.996 66.924 -38.61Q67.551 -37.224000000000004 68.4915 -36.0525Q69.432 -34.881 70.3725 -33.8085Q71.313 -32.736000000000004 71.94 -31.6965Q72.56700000000001 -30.657 72.56700000000001 -29.568V-28.545L71.808 -29.667H78.54Q79.06800000000001 -29.667 79.3485 -29.485500000000002Q79.629 -29.304000000000002 79.629 -28.908Q79.629 -28.347 79.0515 -27.9675Q78.474 -27.588 77.25300000000001 -27.588H72.96300000000001Z M101.21100000000001 -3.696V-4.191L100.71600000000001 -4.125V-24.519000000000002Q100.71600000000001 -26.862000000000002 99.62700000000001 -28.1325Q98.53800000000001 -29.403000000000002 96.525 -29.403000000000002Q94.51200000000001 -29.403000000000002 93.47250000000001 -28.479Q92.433 -27.555 92.433 -26.301000000000002V-23.496000000000002Q92.433 -21.681 91.179 -20.5755Q89.92500000000001 -19.470000000000002 87.81300000000002 -19.470000000000002Q86.09700000000001 -19.470000000000002 85.14000000000001 -20.361000000000004Q84.183 -21.252000000000002 84.183 -22.902Q84.183 -24.816000000000003 85.75050000000002 -26.664Q87.31800000000001 -28.512 90.3705 -29.716500000000003Q93.423 -30.921000000000003 97.87800000000001 -30.921000000000003Q103.653 -30.921000000000003 106.49100000000001 -28.545Q109.32900000000001 -26.169 109.32900000000001 -22.011000000000003V-4.884Q109.32900000000001 -3.8280000000000003 109.70850000000002 -3.3495Q110.08800000000001 -2.871 110.74800000000002 -2.871Q111.40800000000002 -2.871 111.82050000000001 -3.2175000000000002Q112.233 -3.564 112.43100000000001 -4.158Q112.53 -4.323 112.662 -4.422000000000001Q112.79400000000001 -4.521 112.99200000000002 -4.521Q113.22300000000001 -4.521 113.35500000000002 -4.3395Q113.48700000000001 -4.158 113.48700000000001 -3.8280000000000003Q113.48700000000001 -2.97 112.79400000000001 -1.8975000000000002Q112.10100000000001 -0.8250000000000001 110.68200000000002 -0.049500000000000044Q109.263 0.726 107.052 0.726Q104.24700000000001 0.726 102.72900000000001 -0.47850000000000004Q101.21100000000001 -1.683 101.21100000000001 -3.696ZM82.665 -6.699000000000001Q82.665 -10.56 86.031 -12.936Q89.397 -15.312000000000001 95.93100000000001 -15.312000000000001Q98.01 -15.312000000000001 99.5445 -14.932500000000001Q101.07900000000001 -14.553 102.26700000000001 -13.959000000000001L101.772 -12.672Q100.65 -13.200000000000001 99.47850000000001 -13.5135Q98.30700000000002 -13.827 96.888 -13.827Q94.31400000000001 -13.827 92.86200000000001 -12.309000000000001Q91.41000000000001 -10.791 91.41000000000001 -8.052Q91.41000000000001 -5.3790000000000004 92.71350000000001 -3.9765000000000006Q94.01700000000001 -2.5740000000000003 96.06300000000002 -2.5740000000000003Q97.647 -2.5740000000000003 99.165 -3.3165000000000004Q100.683 -4.059 101.673 -5.412L102.23400000000001 -4.29Q100.584 -1.881 97.779 -0.5775Q94.974 0.726 91.77300000000001 0.726Q87.71400000000001 0.726 85.18950000000001 -1.3365Q82.665 -3.399 82.665 -6.699000000000001Z M128.27100000000002 -29.469V-3.696Q128.27100000000002 -2.97 128.53500000000003 -2.574Q128.799 -2.178 129.294 -2.0460000000000003L130.77900000000002 -1.7160000000000002Q131.472 -1.452 131.472 -0.891Q131.472 0.0 130.35000000000002 0.0H117.38100000000001Q116.82000000000001 0.0 116.5395 -0.231Q116.25900000000001 -0.462 116.25900000000001 -0.8580000000000001Q116.25900000000001 -1.155 116.47350000000002 -1.3695Q116.68800000000002 -1.584 117.08400000000002 -1.7160000000000002L118.63500000000002 -2.0460000000000003Q119.16300000000001 -2.2110000000000003 119.394 -2.5740000000000003Q119.62500000000001 -2.9370000000000003 119.62500000000001 -3.6630000000000003V-24.948Q119.62500000000001 -25.476000000000003 119.44350000000001 -25.756500000000003Q119.26200000000001 -26.037000000000003 118.86600000000001 -26.07L116.88600000000001 -26.136000000000003Q116.52300000000001 -26.235000000000003 116.34150000000001 -26.416500000000003Q116.16000000000001 -26.598000000000003 116.16000000000001 -26.895Q116.16000000000001 -27.225 116.37450000000001 -27.456000000000003Q116.58900000000001 -27.687 117.11700000000002 -27.852L124.77300000000001 -30.294Q125.56500000000001 -30.591 126.06 -30.706500000000002Q126.555 -30.822000000000003 126.98400000000001 -30.822000000000003Q127.61100000000002 -30.822000000000003 127.94100000000002 -30.442500000000003Q128.27100000000002 -30.063000000000002 128.27100000000002 -29.469ZM127.41300000000001 -22.506 126.45600000000002 -23.496000000000002 127.67700000000002 -24.618000000000002Q131.472 -28.149 134.3925 -29.535000000000004Q137.31300000000002 -30.921000000000003 139.854 -30.921000000000003Q143.649 -30.921000000000003 145.9755 -28.545Q148.30200000000002 -26.169 148.30200000000002 -21.714000000000002V-3.729Q148.30200000000002 -2.9370000000000003 148.5825 -2.5575Q148.863 -2.178 149.39100000000002 -2.013L150.61200000000002 -1.7160000000000002Q151.305 -1.452 151.305 -0.891Q151.305 0.0 150.11700000000002 0.0H137.577Q136.455 0.0 136.455 -0.891Q136.455 -1.452 137.181 -1.7160000000000002L138.60000000000002 -2.013Q139.227 -2.2110000000000003 139.4745 -2.6565000000000003Q139.722 -3.1020000000000003 139.722 -3.927V-20.592000000000002Q139.722 -23.43 138.35250000000002 -24.881999999999998Q136.983 -26.334 134.739 -26.334Q133.25400000000002 -26.334 131.7525 -25.6905Q130.251 -25.047 128.667 -23.628ZM147.37800000000001 -22.506 146.388 -23.496000000000002 147.57600000000002 -24.651Q150.942 -27.984 153.5985 -29.4525Q156.25500000000002 -30.921000000000003 158.79600000000002 -30.921000000000003Q162.42600000000002 -30.921000000000003 164.55450000000002 -28.5285Q166.68300000000002 -26.136000000000003 167.17800000000003 -21.714000000000002L169.29000000000002 -3.762Q169.389 -2.9370000000000003 169.6365 -2.5410000000000004Q169.88400000000001 -2.145 170.412 -1.98L171.633 -1.7160000000000002Q172.062 -1.584 172.2435 -1.3695Q172.425 -1.155 172.425 -0.8580000000000001Q172.425 -0.462 172.161 -0.231Q171.89700000000002 0.0 171.336 0.0H158.36700000000002Q157.245 0.0 157.245 -0.891Q157.245 -1.452 157.971 -1.7160000000000002L159.39000000000001 -2.013Q160.01700000000002 -2.178 160.2975 -2.6565000000000003Q160.57800000000003 -3.1350000000000002 160.479 -3.96L158.598 -20.592000000000002Q158.26800000000003 -23.43 157.1295 -24.881999999999998Q155.991 -26.334 153.87900000000002 -26.334Q152.592 -26.334 151.2885 -25.6575Q149.985 -24.981 148.53300000000002 -23.661Z M186.681 -29.502000000000002V-3.729Q186.681 -2.97 186.9285 -2.5905000000000005Q187.17600000000002 -2.2110000000000003 187.67100000000002 -2.0460000000000003L189.18900000000002 -1.749Q189.61800000000002 -1.617 189.81600000000003 -1.3860000000000001Q190.014 -1.155 190.014 -0.8580000000000001Q190.014 -0.462 189.75 -0.231Q189.48600000000002 0.0 188.89200000000002 0.0H175.758Q175.23000000000002 0.0 174.9495 -0.231Q174.669 -0.462 174.669 -0.8580000000000001Q174.669 -1.155 174.86700000000002 -1.3695Q175.06500000000003 -1.584 175.461 -1.7160000000000002L177.04500000000002 -2.0460000000000003Q177.57300000000004 -2.2110000000000003 177.80400000000003 -2.5905000000000005Q178.03500000000003 -2.97 178.03500000000003 -3.696V-24.981Q178.03500000000003 -25.509 177.85350000000003 -25.773000000000003Q177.67200000000003 -26.037000000000003 177.24300000000002 -26.07L175.329 -26.136000000000003Q174.93300000000002 -26.235000000000003 174.75150000000002 -26.416500000000003Q174.57000000000002 -26.598000000000003 174.57000000000002 -26.895Q174.57000000000002 -27.258000000000003 174.78450000000004 -27.472500000000004Q174.99900000000002 -27.687 175.52700000000002 -27.852L183.18300000000002 -30.294Q184.04100000000003 -30.591 184.50300000000004 -30.706500000000002Q184.96500000000003 -30.822000000000003 185.32800000000003 -30.822000000000003Q186.02100000000002 -30.822000000000003 186.351 -30.459000000000003Q186.681 -30.096 186.681 -29.502000000000002ZM181.89600000000002 -35.475Q179.48700000000002 -35.475 178.03500000000003 -36.8445Q176.58300000000003 -38.214 176.58300000000003 -40.326Q176.58300000000003 -42.438 178.05150000000003 -43.791000000000004Q179.52 -45.144000000000005 181.89600000000002 -45.144000000000005Q184.305 -45.144000000000005 185.79000000000002 -43.791000000000004Q187.27500000000003 -42.438 187.27500000000003 -40.326Q187.27500000000003 -38.214 185.79000000000002 -36.8445Q184.305 -35.475 181.89600000000002 -35.475Z M205.39200000000002 -47.685V-3.729Q205.39200000000002 -2.97 205.63950000000003 -2.5905000000000005Q205.88700000000003 -2.2110000000000003 206.382 -2.0460000000000003L207.9 -1.749Q208.329 -1.617 208.52700000000002 -1.3860000000000001Q208.72500000000002 -1.155 208.72500000000002 -0.8580000000000001Q208.72500000000002 -0.462 208.4445 -0.231Q208.16400000000002 0.0 207.603 0.0H194.46900000000002Q193.90800000000002 0.0 193.644 -0.231Q193.38000000000002 -0.462 193.38000000000002 -0.8580000000000001Q193.38000000000002 -1.155 193.57800000000003 -1.3860000000000001Q193.776 -1.617 194.23800000000003 -1.749L195.75600000000003 -2.0460000000000003Q196.28400000000002 -2.2110000000000003 196.51500000000001 -2.5905000000000005Q196.746 -2.97 196.746 -3.696V-43.164Q196.746 -43.725 196.5645 -43.9725Q196.383 -44.22 195.954 -44.286L194.04000000000002 -44.352000000000004Q193.644 -44.418 193.4625 -44.616Q193.281 -44.814 193.281 -45.111000000000004Q193.281 -45.474000000000004 193.4955 -45.672000000000004Q193.71 -45.870000000000005 194.23800000000003 -46.068000000000005L201.894 -48.477000000000004Q202.71900000000002 -48.807 203.19750000000002 -48.9225Q203.67600000000002 -49.038000000000004 204.03900000000002 -49.038000000000004Q204.73200000000003 -49.038000000000004 205.062 -48.658500000000004Q205.39200000000002 -48.279 205.39200000000002 -47.685Z M231.49500000000003 -5.8740000000000006 227.04000000000002 3.531 214.53300000000002 -25.014000000000003Q213.84000000000003 -26.631 213.04800000000003 -27.4065Q212.25600000000003 -28.182000000000002 211.002 -28.479000000000003Q210.50700000000003 -28.611 210.32550000000003 -28.8255Q210.14400000000003 -29.040000000000003 210.14400000000003 -29.37Q210.14400000000003 -29.766000000000002 210.44100000000003 -29.997Q210.73800000000003 -30.228 211.23300000000003 -30.228H226.08300000000003Q226.57800000000003 -30.228 226.87500000000003 -29.997Q227.17200000000003 -29.766000000000002 227.17200000000003 -29.37Q227.17200000000003 -29.007 226.97400000000002 -28.809Q226.776 -28.611 226.281 -28.479000000000003L224.56500000000003 -28.215Q223.377 -27.984 223.16250000000002 -27.258000000000003Q222.94800000000004 -26.532 223.60800000000003 -24.981ZM225.45600000000002 6.039000000000001 228.03000000000003 -0.363 228.85500000000002 -2.145 237.53400000000002 -24.288Q238.26000000000002 -26.136000000000003 237.94650000000001 -26.961000000000002Q237.63300000000004 -27.786 236.247 -28.116L234.69600000000003 -28.446Q234.20100000000002 -28.578000000000003 233.98650000000004 -28.792500000000004Q233.77200000000002 -29.007 233.77200000000002 -29.337Q233.77200000000002 -29.766000000000002 234.06900000000002 -29.997Q234.366 -30.228 234.86100000000002 -30.228H243.639Q244.16700000000003 -30.228 244.44750000000002 -29.997Q244.728 -29.766000000000002 244.728 -29.337Q244.728 -29.073 244.5465 -28.8585Q244.365 -28.644000000000002 243.87000000000003 -28.446Q242.28600000000003 -28.05 241.42800000000003 -27.258000000000003Q240.57000000000002 -26.466 239.84400000000002 -24.651L227.79900000000004 5.841Q226.281 9.636000000000001 225.02700000000002 11.847000000000001Q223.77300000000002 14.058 222.2715 14.982Q220.77 15.906 218.46000000000004 15.906Q215.22600000000003 15.906 213.2955 14.107500000000002Q211.365 12.309000000000001 211.365 9.702Q211.365 7.788 212.322 6.7155000000000005Q213.27900000000002 5.643000000000001 214.79700000000003 5.643000000000001Q216.216 5.643000000000001 217.041 6.534000000000001Q217.866 7.425000000000001 218.39400000000003 8.976L218.79000000000002 10.263Q219.05400000000003 11.352 219.59850000000003 12.045000000000002Q220.14300000000003 12.738000000000001 220.90200000000002 12.738000000000001Q221.62800000000001 12.738000000000001 222.288 12.0945Q222.94800000000004 11.451 223.70700000000002 9.966000000000001Q224.466 8.481 225.45600000000002 6.039000000000001Z M275.51700000000005 -30.921000000000003Q280.26900000000006 -30.921000000000003 283.89900000000006 -28.908Q287.52900000000005 -26.895 289.59150000000005 -23.298000000000002Q291.65400000000005 -19.701 291.65400000000005 -15.015Q291.65400000000005 -10.428 289.54200000000003 -6.8805000000000005Q287.43000000000006 -3.333 283.7175000000001 -1.2870000000000001Q280.00500000000005 0.759 275.15400000000005 0.759Q270.40200000000004 0.759 266.77200000000005 -1.2540000000000002Q263.14200000000005 -3.2670000000000003 261.096 -6.8475Q259.05 -10.428 259.05 -15.081000000000001Q259.05 -19.668 261.1455 -23.2485Q263.24100000000004 -26.829 266.9535000000001 -28.875Q270.66600000000005 -30.921000000000003 275.51700000000005 -30.921000000000003ZM277.53000000000003 -1.3860000000000001Q279.67500000000007 -1.683 281.01150000000007 -3.432Q282.34800000000007 -5.181 282.7605000000001 -8.349Q283.17300000000006 -11.517000000000001 282.48 -16.038Q281.82000000000005 -20.559 280.48350000000005 -23.496000000000002Q279.14700000000005 -26.433 277.2825 -27.7695Q275.41800000000006 -29.106 273.17400000000004 -28.776Q270.99600000000004 -28.479000000000003 269.65950000000004 -26.713500000000003Q268.32300000000004 -24.948 267.96000000000004 -21.7965Q267.59700000000004 -18.645 268.25700000000006 -14.124Q268.91700000000003 -9.669 270.27000000000004 -6.732Q271.62300000000005 -3.7950000000000004 273.471 -2.442Q275.319 -1.089 277.53000000000003 -1.3860000000000001Z M308.583 -3.762Q308.583 -3.069 308.88 -2.673Q309.177 -2.277 309.80400000000003 -2.2110000000000003L313.33500000000004 -1.749Q313.83000000000004 -1.7160000000000002 314.06100000000004 -1.4685000000000001Q314.29200000000003 -1.221 314.29200000000003 -0.8580000000000001Q314.29200000000003 0.0 313.20300000000003 0.0H297.0Q296.50500000000005 0.0 296.22450000000003 -0.21450000000000002Q295.944 -0.42900000000000005 295.944 -0.792Q295.944 -1.1880000000000002 296.175 -1.4025Q296.406 -1.617 296.86800000000005 -1.749L298.78200000000004 -2.112Q299.442 -2.31 299.73900000000003 -2.673Q300.036 -3.036 300.036 -3.6300000000000003V-25.905Q300.036 -26.367 299.805 -26.680500000000002Q299.574 -26.994 298.98 -27.192L296.37300000000005 -27.852Q295.713 -28.116 295.482 -28.347Q295.25100000000003 -28.578000000000003 295.25100000000003 -28.908Q295.25100000000003 -29.238000000000003 295.51500000000004 -29.4525Q295.77900000000005 -29.667 296.274 -29.667H301.35600000000005L300.069 -28.941000000000003V-29.700000000000003Q300.069 -30.657 299.5905 -31.597500000000004Q299.112 -32.538000000000004 298.46850000000006 -33.5775Q297.82500000000005 -34.617000000000004 297.33000000000004 -35.904Q296.83500000000004 -37.191 296.83500000000004 -38.841Q296.83500000000004 -42.9 299.54100000000005 -45.292500000000004Q302.247 -47.685 306.966 -47.685Q309.96900000000005 -47.685 312.01500000000004 -46.7115Q314.06100000000004 -45.738 315.08400000000006 -44.121Q316.107 -42.504000000000005 316.107 -40.59Q316.107 -38.577000000000005 315.0675 -37.53750000000001Q314.028 -36.498000000000005 312.37800000000004 -36.498000000000005Q310.629 -36.498000000000005 309.54 -37.6365Q308.451 -38.775 308.451 -40.689V-43.230000000000004Q308.451 -44.649 307.725 -45.35850000000001Q306.999 -46.068000000000005 305.67900000000003 -46.068000000000005Q303.86400000000003 -46.035000000000004 302.89050000000003 -44.88Q301.91700000000003 -43.725 301.91700000000003 -41.613Q301.91700000000003 -39.996 302.54400000000004 -38.61Q303.17100000000005 -37.224000000000004 304.11150000000004 -36.0525Q305.052 -34.881 305.99250000000006 -33.8085Q306.93300000000005 -32.736000000000004 307.56000000000006 -31.6965Q308.187 -30.657 308.187 -29.568V-28.545L307.428 -29.667H314.16Q314.68800000000005 -29.667 314.96850000000006 -29.485500000000002Q315.249 -29.304000000000002 315.249 -28.908Q315.249 -28.347 314.67150000000004 -27.9675Q314.09400000000005 -27.588 312.87300000000005 -27.588H308.583Z M343.79400000000004 -3.762Q343.79400000000004 -3.069 344.091 -2.673Q344.38800000000003 -2.277 345.01500000000004 -2.2110000000000003L348.54600000000005 -1.749Q349.04100000000005 -1.7160000000000002 349.27200000000005 -1.4685000000000001Q349.50300000000004 -1.221 349.50300000000004 -0.8580000000000001Q349.50300000000004 0.0 348.41400000000004 0.0H332.211Q331.71600000000007 0.0 331.43550000000005 -0.21450000000000002Q331.15500000000003 -0.42900000000000005 331.15500000000003 -0.792Q331.15500000000003 -1.1880000000000002 331.386 -1.4025Q331.617 -1.617 332.07900000000006 -1.749L333.99300000000005 -2.112Q334.653 -2.31 334.95000000000005 -2.673Q335.247 -3.036 335.247 -3.6300000000000003V-25.905Q335.247 -26.367 335.016 -26.680500000000002Q334.785 -26.994 334.19100000000003 -27.192L331.58400000000006 -27.852Q330.92400000000004 -28.116 330.69300000000004 -28.347Q330.46200000000005 -28.578000000000003 330.46200000000005 -28.908Q330.46200000000005 -29.238000000000003 330.72600000000006 -29.4525Q330.99000000000007 -29.667 331.485 -29.667H336.56700000000006L335.28000000000003 -28.941000000000003V-29.700000000000003Q335.28000000000003 -30.657 334.80150000000003 -31.597500000000004Q334.32300000000004 -32.538000000000004 333.6795000000001 -33.5775Q333.03600000000006 -34.617000000000004 332.54100000000005 -35.904Q332.04600000000005 -37.191 332.04600000000005 -38.841Q332.04600000000005 -42.9 334.75200000000007 -45.292500000000004Q337.458 -47.685 342.177 -47.685Q345.18000000000006 -47.685 347.22600000000006 -46.7115Q349.27200000000005 -45.738 350.2950000000001 -44.121Q351.31800000000004 -42.504000000000005 351.31800000000004 -40.59Q351.31800000000004 -38.577000000000005 350.2785 -37.53750000000001Q349.23900000000003 -36.498000000000005 347.58900000000006 -36.498000000000005Q345.84000000000003 -36.498000000000005 344.75100000000003 -37.6365Q343.66200000000003 -38.775 343.66200000000003 -40.689V-43.230000000000004Q343.66200000000003 -44.649 342.93600000000004 -45.35850000000001Q342.21000000000004 -46.068000000000005 340.89000000000004 -46.068000000000005Q339.07500000000005 -46.035000000000004 338.10150000000004 -44.88Q337.12800000000004 -43.725 337.12800000000004 -41.613Q337.12800000000004 -39.996 337.75500000000005 -38.61Q338.38200000000006 -37.224000000000004 339.32250000000005 -36.0525Q340.26300000000003 -34.881 341.2035000000001 -33.8085Q342.14400000000006 -32.736000000000004 342.7710000000001 -31.6965Q343.398 -30.657 343.398 -29.568V-28.545L342.639 -29.667H349.37100000000004Q349.89900000000006 -29.667 350.1795000000001 -29.485500000000002Q350.46000000000004 -29.304000000000002 350.46000000000004 -28.908Q350.46000000000004 -28.347 349.88250000000005 -27.9675Q349.30500000000006 -27.588 348.08400000000006 -27.588H343.79400000000004Z M365.31000000000006 -29.502000000000002V-3.729Q365.31000000000006 -2.97 365.55750000000006 -2.5905000000000005Q365.80500000000006 -2.2110000000000003 366.30000000000007 -2.0460000000000003L367.81800000000004 -1.749Q368.24700000000007 -1.617 368.44500000000005 -1.3860000000000001Q368.64300000000003 -1.155 368.64300000000003 -0.8580000000000001Q368.64300000000003 -0.462 368.379 -0.231Q368.11500000000007 0.0 367.521 0.0H354.38700000000006Q353.85900000000004 0.0 353.5785000000001 -0.231Q353.29800000000006 -0.462 353.29800000000006 -0.8580000000000001Q353.29800000000006 -1.155 353.49600000000004 -1.3695Q353.694 -1.584 354.09000000000003 -1.7160000000000002L355.67400000000004 -2.0460000000000003Q356.20200000000006 -2.2110000000000003 356.43300000000005 -2.5905000000000005Q356.66400000000004 -2.97 356.66400000000004 -3.696V-24.981Q356.66400000000004 -25.509 356.4825000000001 -25.773000000000003Q356.30100000000004 -26.037000000000003 355.872 -26.07L353.958 -26.136000000000003Q353.56200000000007 -26.235000000000003 353.38050000000004 -26.416500000000003Q353.199 -26.598000000000003 353.199 -26.895Q353.199 -27.258000000000003 353.4135 -27.472500000000004Q353.62800000000004 -27.687 354.15600000000006 -27.852L361.812 -30.294Q362.67 -30.591 363.13200000000006 -30.706500000000002Q363.59400000000005 -30.822000000000003 363.95700000000005 -30.822000000000003Q364.65000000000003 -30.822000000000003 364.98 -30.459000000000003Q365.31000000000006 -30.096 365.31000000000006 -29.502000000000002ZM360.52500000000003 -35.475Q358.11600000000004 -35.475 356.66400000000004 -36.8445Q355.21200000000005 -38.214 355.21200000000005 -40.326Q355.21200000000005 -42.438 356.68050000000005 -43.791000000000004Q358.14900000000006 -45.144000000000005 360.52500000000003 -45.144000000000005Q362.934 -45.144000000000005 364.41900000000004 -43.791000000000004Q365.90400000000005 -42.438 365.90400000000005 -40.326Q365.90400000000005 -38.214 364.41900000000004 -36.8445Q362.934 -35.475 360.52500000000003 -35.475Z M388.44300000000004 0.165H385.1430000000001Q384.48300000000006 0.165 384.00450000000006 -0.16499999999999998Q383.52600000000007 -0.495 383.26200000000006 -1.1880000000000002L373.46100000000007 -26.268Q373.06500000000005 -27.225 372.73500000000007 -27.654000000000003Q372.4050000000001 -28.083000000000002 371.9100000000001 -28.182000000000002L370.72200000000004 -28.479000000000003Q370.29300000000006 -28.611 370.095 -28.8255Q369.89700000000005 -29.040000000000003 369.89700000000005 -29.37Q369.89700000000005 -29.766000000000002 370.1940000000001 -29.997Q370.49100000000004 -30.228 370.98600000000005 -30.228H385.77000000000004Q386.85900000000004 -30.228 386.85900000000004 -29.37Q386.85900000000004 -29.040000000000003 386.66100000000006 -28.8255Q386.4630000000001 -28.611 385.9680000000001 -28.512L384.5490000000001 -28.215Q382.99800000000005 -27.918000000000003 382.68450000000007 -27.258000000000003Q382.37100000000004 -26.598000000000003 382.9320000000001 -25.113L390.5880000000001 -4.851L388.7730000000001 -2.871L396.75900000000007 -24.684Q397.3860000000001 -26.367 397.0230000000001 -27.159Q396.6600000000001 -27.951 395.14200000000005 -28.215L393.69000000000005 -28.512Q393.19500000000005 -28.611 392.99700000000007 -28.8255Q392.7990000000001 -29.040000000000003 392.7990000000001 -29.37Q392.7990000000001 -29.766000000000002 393.07950000000005 -29.997Q393.36000000000007 -30.228 393.8550000000001 -30.228H402.6000000000001Q403.0950000000001 -30.228 403.39200000000005 -29.997Q403.6890000000001 -29.766000000000002 403.6890000000001 -29.37Q403.6890000000001 -29.073 403.50750000000005 -28.842Q403.3260000000001 -28.611 402.79800000000006 -28.479000000000003L401.7420000000001 -28.281000000000002Q400.98300000000006 -28.083000000000002 400.4385000000001 -27.340500000000002Q399.89400000000006 -26.598000000000003 399.26700000000005 -24.882L390.32400000000007 -1.089Q390.02700000000004 -0.363 389.53200000000004 -0.09899999999999999Q389.03700000000003 0.165 388.44300000000004 0.165Z M433.884 -18.414Q433.884 -17.325 433.25700000000006 -16.7145Q432.63000000000005 -16.104 431.40900000000005 -16.104H410.88300000000004V-17.754H424.083Q425.23800000000006 -17.754 425.23800000000006 -18.876Q425.23800000000006 -23.925 423.65400000000005 -26.4165Q422.07000000000005 -28.908 419.62800000000004 -28.908Q417.648 -28.908 416.1795 -27.654000000000003Q414.711 -26.400000000000002 413.8695 -23.9415Q413.028 -21.483 413.028 -17.886Q413.028 -11.286000000000001 415.96500000000003 -8.002500000000001Q418.90200000000004 -4.719 423.72 -4.719Q426.855 -4.719 429.1155 -6.2205Q431.37600000000003 -7.722 432.16800000000006 -10.329Q432.49800000000005 -10.758000000000001 432.71250000000003 -10.906500000000001Q432.927 -11.055 433.158 -11.055Q433.48800000000006 -11.055 433.653 -10.7745Q433.81800000000004 -10.494 433.785 -10.032Q433.62000000000006 -7.029 431.85450000000003 -4.587Q430.08900000000006 -2.145 427.1025000000001 -0.6930000000000001Q424.11600000000004 0.759 420.321 0.759Q415.86600000000004 0.759 412.4340000000001 -1.1385Q409.00200000000007 -3.036 407.0715 -6.468Q405.141 -9.9 405.141 -14.487Q405.141 -19.338 407.0385 -23.0505Q408.93600000000004 -26.763 412.434 -28.8585Q415.932 -30.954 420.71700000000004 -30.954Q424.84200000000004 -30.954 427.77900000000005 -29.337000000000003Q430.71600000000007 -27.720000000000002 432.30000000000007 -24.882Q433.884 -22.044 433.884 -18.414Z M443.88300000000004 0.165Q441.27600000000007 0.165 439.9725000000001 -1.2045000000000001Q438.66900000000004 -2.5740000000000003 438.66900000000004 -4.752000000000001Q438.66900000000004 -7.029 440.187 -8.5305Q441.70500000000004 -10.032 443.982 -10.032Q446.35800000000006 -10.032 448.04100000000005 -8.184000000000001Q449.72400000000005 -6.336 449.72400000000005 -2.475Q449.72400000000005 0.462 449.0475 2.772Q448.37100000000004 5.082 447.1170000000001 6.781499999999999Q445.86300000000006 8.481 444.14700000000005 9.586500000000001Q442.43100000000004 10.692 440.35200000000003 11.253Q439.62600000000003 11.418000000000001 439.23 11.2695Q438.83400000000006 11.121 438.76800000000003 10.758000000000001Q438.70200000000006 10.362 438.96600000000007 10.0485Q439.2300000000001 9.735000000000001 439.98900000000003 9.471Q442.36500000000007 8.613 443.8335000000001 7.342499999999999Q445.3020000000001 6.072 445.9620000000001 4.5375Q446.62200000000007 3.003 446.62200000000007 1.452Q446.62200000000007 0.8250000000000001 446.37450000000007 0.49500000000000005Q446.12700000000007 0.165 445.36800000000005 0.165Z" fill="#F2E8D5"/></g><g transform="translate(270.43,392.00)"><path d="M22.935000000000002 -47.751000000000005Q25.740000000000002 -47.751000000000005 27.076500000000003 -46.6455Q28.413 -45.54 28.413 -43.989000000000004Q28.413 -42.57 27.522 -41.679Q26.631 -40.788000000000004 24.981 -40.788000000000004Q23.925 -40.788000000000004 23.0175 -41.184000000000005Q22.11 -41.580000000000005 21.285 -42.124500000000005Q20.46 -42.669000000000004 19.668 -43.065Q18.876 -43.461 18.018 -43.461Q17.226 -43.461 16.566 -42.998999999999995Q15.906 -42.537 15.5265 -41.7945Q15.147 -41.052 15.081000000000001 -40.194Q15.081000000000001 -39.369 15.4605 -38.560500000000005Q15.84 -37.752 16.335 -36.8775Q16.830000000000002 -36.003 17.2425 -34.914Q17.655 -33.825 17.7375 -32.472Q17.82 -31.119 17.325 -29.37L11.154 -8.745000000000001Q10.329 -5.8740000000000006 10.56 -4.9005Q10.791 -3.927 11.682 -3.927Q12.441 -3.927 13.299 -4.4385Q14.157 -4.95 15.147 -6.171Q15.543000000000001 -6.567 15.774000000000001 -6.666Q16.005 -6.765000000000001 16.269000000000002 -6.666Q16.566000000000003 -6.567 16.599000000000004 -6.138Q16.632 -5.7090000000000005 16.302 -5.049Q15.477 -3.366 13.992 -2.079Q12.507000000000001 -0.792 10.543500000000002 -0.04949999999999999Q8.58 0.6930000000000001 6.2700000000000005 0.6930000000000001Q4.026 0.6930000000000001 2.937 -0.1815Q1.848 -1.056 1.749 -2.805Q1.6500000000000001 -4.554 2.4090000000000003 -7.095000000000001L11.814 -38.61Q13.266 -43.362 16.087500000000002 -45.5565Q18.909000000000002 -47.751000000000005 22.935000000000002 -47.751000000000005Z M31.548000000000002 -8.547Q30.657000000000004 -5.8740000000000006 30.904500000000002 -4.884Q31.152 -3.894 31.977000000000004 -3.894Q32.538000000000004 -3.894 33.2145 -4.323Q33.891000000000005 -4.752000000000001 34.881 -5.8740000000000006Q35.31 -6.303 35.574 -6.402Q35.838 -6.501 36.102000000000004 -6.402Q36.399 -6.2700000000000005 36.399 -5.841Q36.399 -5.412 36.069 -4.719Q34.716 -2.277 32.274 -0.792Q29.832 0.6930000000000001 26.532000000000004 0.6930000000000001Q24.321 0.6930000000000001 23.232 -0.19799999999999995Q22.143 -1.089 22.0935 -2.8049999999999997Q22.044 -4.521 22.869 -6.996L27.720000000000002 -20.988Q28.644000000000002 -23.562 28.429500000000004 -24.5685Q28.215000000000003 -25.575000000000003 27.39 -25.575000000000003Q26.829 -25.575000000000003 26.119500000000002 -25.146Q25.41 -24.717000000000002 24.321 -23.529Q23.892000000000003 -23.166 23.628 -23.067Q23.364 -22.968 23.1 -23.067Q22.803 -23.199 22.8195 -23.595Q22.836000000000002 -23.991 23.133000000000003 -24.618000000000002Q24.684 -27.258000000000003 27.192 -28.858500000000003Q29.700000000000003 -30.459000000000003 32.67 -30.459000000000003Q34.650000000000006 -30.459000000000003 35.772000000000006 -29.568Q36.894000000000005 -28.677 37.059000000000005 -26.878500000000003Q37.224000000000004 -25.080000000000002 36.3 -22.407ZM34.452 -35.211Q32.307 -35.211 31.1685 -36.3Q30.03 -37.389 30.129 -39.006Q30.162 -40.425000000000004 31.02 -41.7945Q31.878 -43.164 33.363 -44.05500000000001Q34.848 -44.946000000000005 36.795 -44.946000000000005Q39.138000000000005 -44.946000000000005 40.194 -43.840500000000006Q41.25 -42.735 41.184 -41.151Q41.151 -39.567 40.293000000000006 -38.214Q39.435 -36.861000000000004 37.9335 -36.036Q36.432 -35.211 34.452 -35.211Z M74.415 -24.453Q74.415 -20.559 73.2765 -16.863Q72.138 -13.167 70.1085 -9.999Q68.07900000000001 -6.831 65.32350000000001 -4.4055Q62.568000000000005 -1.98 59.334 -0.6435Q56.10000000000001 0.6930000000000001 52.569 0.6930000000000001Q49.434000000000005 0.6930000000000001 47.63550000000001 -0.7755000000000001Q45.837 -2.244 45.870000000000005 -5.148000000000001Q45.870000000000005 -7.821000000000001 47.0745 -10.032Q48.279 -12.243 50.0775 -14.107500000000002Q51.876000000000005 -15.972000000000001 53.790000000000006 -17.5725Q55.70400000000001 -19.173000000000002 57.20550000000001 -20.592000000000002Q58.70700000000001 -22.011000000000003 59.268 -23.331L59.301 -22.275000000000002Q57.321000000000005 -22.275000000000002 55.52250000000001 -22.753500000000003Q53.724000000000004 -23.232 52.12350000000001 -23.859Q50.523 -24.486 49.087500000000006 -24.997500000000002Q47.652 -25.509 46.365 -25.542Q45.012 -25.575000000000003 44.286 -24.9645Q43.56 -24.354000000000003 43.494 -23.496000000000002Q43.362 -22.176000000000002 45.243 -21.45Q46.497 -20.955000000000002 47.091 -20.361Q47.685 -19.767 47.619 -18.810000000000002Q47.586000000000006 -17.721 46.810500000000005 -17.110500000000002Q46.035000000000004 -16.5 44.946000000000005 -16.5Q43.131 -16.5 41.976 -17.985Q40.821000000000005 -19.470000000000002 41.05200000000001 -21.978Q41.25 -24.42 42.4875 -26.334000000000003Q43.725 -28.248 45.771 -29.353500000000004Q47.81700000000001 -30.459000000000003 50.391000000000005 -30.459000000000003Q51.843 -30.459000000000003 53.361000000000004 -30.162000000000003Q54.879000000000005 -29.865000000000002 56.232000000000006 -29.551500000000004Q57.58500000000001 -29.238000000000003 58.509 -29.238000000000003Q59.334 -29.238000000000003 59.779500000000006 -29.535000000000004Q60.22500000000001 -29.832 60.57150000000001 -30.1125Q60.918000000000006 -30.393 61.413000000000004 -30.360000000000003Q61.875 -30.360000000000003 62.073 -30.0135Q62.271 -29.667 62.238 -28.908Q62.07300000000001 -27.39 61.429500000000004 -25.443Q60.786 -23.496000000000002 59.911500000000004 -21.252000000000002Q59.037000000000006 -19.008000000000003 58.179 -16.632Q57.321000000000005 -14.256 56.760000000000005 -11.8965Q56.199000000000005 -9.537 56.199000000000005 -7.392Q56.199000000000005 -5.181 56.941500000000005 -4.1745Q57.684000000000005 -3.168 58.938 -3.168Q60.456 -3.1350000000000002 62.27100000000001 -4.455Q64.08600000000001 -5.775 65.71950000000001 -7.9695Q67.35300000000001 -10.164 68.4255 -12.8205Q69.498 -15.477 69.56400000000001 -18.150000000000002Q69.63000000000001 -19.635 69.18450000000001 -20.509500000000003Q68.739 -21.384 67.914 -22.176000000000002Q66.825 -23.1 66.363 -23.9745Q65.90100000000001 -24.849 65.934 -26.037000000000003Q66.0 -27.225 66.5775 -28.231500000000004Q67.155 -29.238000000000003 68.1285 -29.8485Q69.102 -30.459000000000003 70.32300000000001 -30.459000000000003Q72.27000000000001 -30.459000000000003 73.3425 -28.957500000000003Q74.415 -27.456000000000003 74.415 -24.453Z M87.41700000000002 -8.547Q86.52600000000001 -5.8740000000000006 86.77350000000001 -4.884Q87.02100000000002 -3.894 87.84600000000002 -3.894Q88.40700000000001 -3.894 89.08350000000002 -4.323Q89.76000000000002 -4.752000000000001 90.75000000000001 -5.8740000000000006Q91.17900000000002 -6.303 91.44300000000001 -6.402Q91.70700000000001 -6.501 91.971 -6.402Q92.26800000000001 -6.2700000000000005 92.26800000000001 -5.841Q92.26800000000001 -5.412 91.93800000000002 -4.719Q90.58500000000001 -2.277 88.143 -0.792Q85.70100000000001 0.6930000000000001 82.40100000000001 0.6930000000000001Q80.19000000000001 0.6930000000000001 79.10100000000001 -0.19799999999999995Q78.01200000000001 -1.089 77.9625 -2.8049999999999997Q77.91300000000001 -4.521 78.73800000000001 -6.996L83.58900000000001 -20.988Q84.513 -23.562 84.29850000000002 -24.5685Q84.08400000000002 -25.575000000000003 83.25900000000001 -25.575000000000003Q82.69800000000001 -25.575000000000003 81.98850000000002 -25.146Q81.27900000000001 -24.717000000000002 80.19000000000001 -23.529Q79.76100000000001 -23.166 79.49700000000001 -23.067Q79.23300000000002 -22.968 78.96900000000001 -23.067Q78.67200000000001 -23.199 78.6885 -23.595Q78.70500000000001 -23.991 79.00200000000001 -24.618000000000002Q80.55300000000001 -27.258000000000003 83.061 -28.858500000000003Q85.56900000000002 -30.459000000000003 88.53900000000002 -30.459000000000003Q90.519 -30.459000000000003 91.641 -29.568Q92.763 -28.677 92.92800000000001 -26.878500000000003Q93.09300000000002 -25.080000000000002 92.16900000000001 -22.407ZM90.32100000000001 -35.211Q88.17600000000002 -35.211 87.03750000000002 -36.3Q85.89900000000002 -37.389 85.99800000000002 -39.006Q86.031 -40.425000000000004 86.88900000000001 -41.7945Q87.74700000000001 -43.164 89.23200000000001 -44.05500000000001Q90.71700000000001 -44.946000000000005 92.66400000000002 -44.946000000000005Q95.007 -44.946000000000005 96.06300000000002 -43.840500000000006Q97.11900000000001 -42.735 97.05300000000001 -41.151Q97.02000000000001 -39.567 96.162 -38.214Q95.30400000000002 -36.861000000000004 93.80250000000001 -36.036Q92.30100000000002 -35.211 90.32100000000001 -35.211Z M98.80200000000002 -23.067Q98.50500000000002 -23.199 98.50500000000002 -23.6115Q98.50500000000002 -24.024 98.83500000000002 -24.618000000000002Q100.41900000000001 -27.291 103.00950000000002 -28.875Q105.60000000000002 -30.459000000000003 108.60300000000002 -30.459000000000003Q110.55000000000001 -30.459000000000003 111.60600000000002 -29.6175Q112.66200000000002 -28.776 112.66200000000002 -27.126Q112.66200000000002 -26.07 112.23300000000002 -24.6675Q111.80400000000002 -23.265 111.17700000000002 -21.631500000000003Q110.55000000000001 -19.998 109.85700000000001 -18.2325Q109.16400000000002 -16.467000000000002 108.63600000000002 -14.685L108.27300000000002 -15.246Q110.12100000000002 -19.569000000000003 112.31550000000001 -22.4895Q114.51000000000002 -25.41 116.83650000000002 -27.159Q119.16300000000001 -28.908 121.39050000000002 -29.683500000000002Q123.61800000000002 -30.459000000000003 125.49900000000002 -30.459000000000003Q128.04000000000002 -30.459000000000003 129.19500000000002 -29.353500000000004Q130.35000000000002 -28.248 130.36650000000003 -26.202Q130.383 -24.156000000000002 129.459 -21.384L125.23500000000001 -8.514000000000001Q124.34400000000002 -5.841 124.59150000000002 -4.8675Q124.83900000000003 -3.894 125.63100000000001 -3.894Q126.22500000000002 -3.894 126.90150000000003 -4.323Q127.57800000000002 -4.752000000000001 128.568 -5.8740000000000006Q128.997 -6.303 129.24450000000002 -6.402Q129.49200000000002 -6.501 129.75600000000003 -6.369000000000001Q130.05300000000003 -6.237 130.05300000000003 -5.8245000000000005Q130.05300000000003 -5.412 129.723 -4.719Q128.40300000000002 -2.277 125.96100000000001 -0.792Q123.51900000000002 0.6930000000000001 120.21900000000002 0.6930000000000001Q118.00800000000001 0.6930000000000001 116.91900000000001 -0.1815Q115.83000000000001 -1.056 115.76400000000001 -2.7720000000000002Q115.69800000000002 -4.488 116.52300000000002 -6.963L120.78000000000002 -19.899Q121.80300000000003 -22.902 121.48950000000002 -24.090000000000003Q121.17600000000002 -25.278000000000002 119.65800000000002 -25.278000000000002Q118.56900000000002 -25.278000000000002 117.15000000000002 -24.486000000000004Q115.73100000000002 -23.694000000000003 114.16350000000003 -22.077Q112.59600000000002 -20.46 111.11100000000002 -17.9685Q109.62600000000002 -15.477 108.43800000000002 -12.045Q107.77800000000002 -10.164 107.38200000000002 -8.844Q106.98600000000002 -7.524 106.82100000000003 -6.633Q106.65600000000002 -5.742 106.65600000000002 -5.148000000000001Q106.65600000000002 -4.356 106.93650000000002 -3.795Q107.21700000000001 -3.234 107.21700000000001 -2.475Q107.21700000000001 -1.056 105.35250000000002 -0.1815Q103.48800000000001 0.6930000000000001 100.22100000000002 0.6930000000000001Q97.91100000000002 0.6930000000000001 97.44900000000001 -0.6435Q96.98700000000002 -1.98 97.91100000000002 -4.686L103.42200000000003 -20.988Q104.31300000000002 -23.595000000000002 104.11500000000001 -24.585Q103.91700000000002 -25.575000000000003 103.09200000000001 -25.575000000000003Q102.53100000000002 -25.575000000000003 101.82150000000001 -25.146Q101.11200000000002 -24.717000000000002 99.99000000000002 -23.529Q99.59400000000002 -23.166 99.33000000000001 -23.067Q99.06600000000002 -22.968 98.80200000000002 -23.067Z M159.39000000000004 -0.891Q158.00400000000005 4.917 155.00100000000003 8.778Q151.99800000000005 12.639000000000001 147.54300000000003 14.553Q143.08800000000002 16.467000000000002 137.31300000000005 16.467000000000002Q133.32000000000002 16.467000000000002 131.27400000000003 15.180000000000001Q129.22800000000004 13.893 129.22800000000004 11.88Q129.22800000000004 10.527000000000001 130.16850000000005 9.57Q131.10900000000004 8.613 132.82500000000005 8.613Q134.21100000000004 8.613 135.39900000000006 9.372Q136.58700000000005 10.131 137.67600000000004 11.154Q138.76500000000004 12.177000000000001 139.85400000000004 12.936Q140.94300000000004 13.695 142.13100000000003 13.695Q143.61600000000004 13.695 145.00200000000004 12.9195Q146.38800000000003 12.144 147.51000000000005 10.4115Q148.63200000000003 8.679 149.35800000000003 5.8740000000000006L154.24200000000005 -12.639000000000001L155.03400000000005 -12.144Q153.48300000000003 -7.8870000000000005 151.32150000000001 -5.032500000000001Q149.16000000000003 -2.178 146.586 -0.7424999999999999Q144.01200000000003 0.6930000000000001 141.10800000000003 0.6930000000000001Q138.79800000000003 0.6930000000000001 137.11500000000004 -0.3135Q135.43200000000004 -1.32 134.60700000000003 -3.4155Q133.78200000000004 -5.511 134.04600000000005 -8.745000000000001Q134.34300000000005 -12.078000000000001 135.59700000000004 -15.2625Q136.85100000000003 -18.447 138.99600000000004 -21.2025Q141.14100000000005 -23.958000000000002 143.99550000000005 -26.0535Q146.85000000000002 -28.149 150.29850000000005 -29.320500000000003Q153.74700000000004 -30.492 157.64100000000005 -30.492Q160.57800000000003 -30.492 162.70650000000003 -30.079500000000003Q164.83500000000004 -29.667 165.99000000000004 -29.04Q167.14500000000004 -28.413 167.07900000000004 -27.720000000000002Q167.01300000000003 -27.093 166.61700000000002 -26.8125Q166.22100000000003 -26.532 165.77550000000002 -26.235Q165.33000000000004 -25.938000000000002 165.19800000000004 -25.278000000000002ZM142.75800000000004 -8.844000000000001Q142.52700000000004 -6.633 142.85700000000003 -5.3955Q143.18700000000004 -4.158 143.83050000000003 -3.6630000000000003Q144.47400000000005 -3.168 145.23300000000003 -3.168Q146.55300000000003 -3.168 147.98850000000004 -4.356Q149.42400000000004 -5.5440000000000005 150.82650000000004 -7.639500000000001Q152.22900000000004 -9.735000000000001 153.45000000000005 -12.441Q154.67100000000005 -15.147 155.57850000000005 -18.1995Q156.48600000000005 -21.252000000000002 156.91500000000002 -24.354000000000003Q157.24500000000003 -26.301000000000002 156.96450000000004 -27.291000000000004Q156.68400000000003 -28.281000000000002 155.56200000000004 -28.281000000000002Q153.84600000000003 -28.281000000000002 152.11350000000004 -27.159000000000002Q150.38100000000003 -26.037000000000003 148.78050000000002 -24.090000000000003Q147.18000000000004 -22.143 145.90950000000004 -19.635Q144.63900000000004 -17.127000000000002 143.79750000000004 -14.355Q142.95600000000005 -11.583 142.75800000000004 -8.844000000000001Z M201.16800000000003 -47.751000000000005Q203.97300000000004 -47.751000000000005 205.30950000000004 -46.6455Q206.64600000000004 -45.54 206.64600000000004 -43.989000000000004Q206.64600000000004 -42.57 205.75500000000005 -41.679Q204.86400000000003 -40.788000000000004 203.21400000000003 -40.788000000000004Q202.15800000000004 -40.788000000000004 201.25050000000005 -41.184000000000005Q200.34300000000002 -41.580000000000005 199.51800000000003 -42.124500000000005Q198.69300000000004 -42.669000000000004 197.90100000000004 -43.065Q197.10900000000004 -43.461 196.25100000000003 -43.461Q195.45900000000003 -43.461 194.79900000000004 -42.998999999999995Q194.13900000000004 -42.537 193.75950000000003 -41.7945Q193.38000000000002 -41.052 193.31400000000002 -40.194Q193.31400000000002 -39.369 193.69350000000003 -38.560500000000005Q194.07300000000004 -37.752 194.56800000000004 -36.8775Q195.06300000000005 -36.003 195.47550000000004 -34.914Q195.88800000000003 -33.825 195.97050000000002 -32.472Q196.05300000000003 -31.119 195.55800000000002 -29.37L189.38700000000003 -8.745000000000001Q188.56200000000004 -5.8740000000000006 188.79300000000003 -4.9005Q189.02400000000003 -3.927 189.91500000000002 -3.927Q190.67400000000004 -3.927 191.53200000000004 -4.4385Q192.39000000000004 -4.95 193.38000000000002 -6.171Q193.77600000000004 -6.567 194.00700000000003 -6.666Q194.23800000000003 -6.765000000000001 194.50200000000004 -6.666Q194.79900000000004 -6.567 194.83200000000005 -6.138Q194.86500000000004 -5.7090000000000005 194.53500000000003 -5.049Q193.71000000000004 -3.366 192.22500000000002 -2.079Q190.74000000000004 -0.792 188.77650000000006 -0.04949999999999999Q186.81300000000005 0.6930000000000001 184.50300000000004 0.6930000000000001Q182.25900000000004 0.6930000000000001 181.17000000000004 -0.1815Q180.08100000000005 -1.056 179.98200000000003 -2.805Q179.88300000000004 -4.554 180.64200000000002 -7.095000000000001L190.04700000000003 -38.61Q191.49900000000002 -43.362 194.32050000000004 -45.5565Q197.14200000000002 -47.751000000000005 201.16800000000003 -47.751000000000005Z M209.78100000000003 -8.547Q208.89000000000004 -5.8740000000000006 209.13750000000005 -4.884Q209.38500000000005 -3.894 210.21000000000004 -3.894Q210.77100000000004 -3.894 211.44750000000005 -4.323Q212.12400000000005 -4.752000000000001 213.11400000000003 -5.8740000000000006Q213.54300000000003 -6.303 213.80700000000004 -6.402Q214.07100000000005 -6.501 214.33500000000004 -6.402Q214.63200000000003 -6.2700000000000005 214.63200000000003 -5.841Q214.63200000000003 -5.412 214.30200000000005 -4.719Q212.94900000000004 -2.277 210.50700000000006 -0.792Q208.06500000000005 0.6930000000000001 204.76500000000004 0.6930000000000001Q202.55400000000003 0.6930000000000001 201.46500000000003 -0.19799999999999995Q200.37600000000003 -1.089 200.32650000000004 -2.8049999999999997Q200.27700000000004 -4.521 201.10200000000003 -6.996L205.95300000000003 -20.988Q206.87700000000004 -23.562 206.66250000000002 -24.5685Q206.44800000000004 -25.575000000000003 205.62300000000005 -25.575000000000003Q205.06200000000004 -25.575000000000003 204.35250000000005 -25.146Q203.64300000000006 -24.717000000000002 202.55400000000003 -23.529Q202.12500000000006 -23.166 201.86100000000005 -23.067Q201.59700000000004 -22.968 201.33300000000006 -23.067Q201.03600000000006 -23.199 201.05250000000007 -23.595Q201.06900000000005 -23.991 201.36600000000004 -24.618000000000002Q202.91700000000003 -27.258000000000003 205.42500000000004 -28.858500000000003Q207.93300000000005 -30.459000000000003 210.90300000000005 -30.459000000000003Q212.88300000000004 -30.459000000000003 214.00500000000005 -29.568Q215.12700000000004 -28.677 215.29200000000003 -26.878500000000003Q215.45700000000005 -25.080000000000002 214.53300000000004 -22.407ZM212.68500000000006 -35.211Q210.54000000000005 -35.211 209.40150000000006 -36.3Q208.26300000000003 -37.389 208.36200000000005 -39.006Q208.39500000000004 -40.425000000000004 209.25300000000004 -41.7945Q210.11100000000005 -43.164 211.59600000000006 -44.05500000000001Q213.08100000000005 -44.946000000000005 215.02800000000005 -44.946000000000005Q217.37100000000004 -44.946000000000005 218.42700000000005 -43.840500000000006Q219.48300000000006 -42.735 219.41700000000003 -41.151Q219.38400000000004 -39.567 218.52600000000004 -38.214Q217.66800000000003 -36.861000000000004 216.16650000000004 -36.036Q214.66500000000005 -35.211 212.68500000000006 -35.211Z M230.73600000000005 -26.202 231.69300000000004 -28.743000000000002H239.41500000000005Q240.10800000000006 -28.743000000000002 240.50400000000008 -28.5285Q240.90000000000006 -28.314 240.90000000000006 -27.786Q240.90000000000006 -27.357000000000003 240.57000000000005 -26.994Q240.24000000000007 -26.631 239.67900000000006 -26.4165Q239.11800000000005 -26.202 238.39200000000005 -26.202ZM221.49600000000004 -27.753Q221.49600000000004 -28.215 221.85900000000004 -28.4955Q222.22200000000004 -28.776 222.94800000000004 -28.776H226.74300000000005L228.65700000000004 -36.201Q230.04300000000006 -41.811 233.06250000000006 -44.682Q236.08200000000005 -47.553000000000004 240.96600000000007 -47.553000000000004Q243.73800000000006 -47.553000000000004 245.12400000000005 -46.365Q246.51000000000005 -45.177 246.51000000000005 -43.626000000000005Q246.51000000000005 -41.976 245.47050000000004 -40.953Q244.43100000000004 -39.93 242.71500000000006 -39.93Q241.56000000000006 -39.93 240.63600000000005 -40.425Q239.71200000000005 -40.92 238.92000000000004 -41.58Q238.12800000000004 -42.24 237.36900000000003 -42.75150000000001Q236.61000000000004 -43.263000000000005 235.81800000000004 -43.263000000000005Q234.59700000000004 -43.263000000000005 233.70600000000005 -42.372Q232.81500000000005 -41.481 232.51800000000006 -40.095Q232.32000000000005 -38.940000000000005 232.76550000000003 -37.554Q233.21100000000004 -36.168 233.85450000000003 -34.6665Q234.49800000000005 -33.165 234.86100000000005 -31.630499999999998Q235.22400000000005 -30.096 234.82800000000006 -28.644000000000002L226.41300000000004 2.475Q226.14900000000006 3.531 226.01700000000005 4.29Q225.88500000000005 5.049 225.88500000000005 5.643000000000001Q225.88500000000005 6.534000000000001 226.33050000000003 7.0785Q226.77600000000004 7.623 227.23800000000006 8.0685Q227.70000000000005 8.514000000000001 227.70000000000005 9.141Q227.70000000000005 9.999 226.52850000000007 10.89Q225.35700000000006 11.781 223.47600000000006 12.3585Q221.59500000000006 12.936 219.48300000000006 12.936Q217.30500000000006 12.936 216.71100000000007 11.484Q216.11700000000005 10.032 216.97500000000005 6.963L225.22500000000005 -22.473000000000003Q225.78600000000006 -24.552 225.30750000000006 -25.41Q224.82900000000006 -26.268 222.78300000000004 -26.499000000000002Q221.99100000000004 -26.796000000000003 221.74350000000004 -27.109500000000004Q221.49600000000004 -27.423000000000002 221.49600000000004 -27.753Z M244.16700000000006 -13.794Q244.16700000000006 -13.794 245.35500000000008 -14.206500000000002Q246.54300000000006 -14.619000000000002 248.45700000000005 -15.262500000000001Q250.37100000000007 -15.906 252.51600000000008 -16.648500000000002Q254.66100000000006 -17.391000000000002 256.6410000000001 -18.067500000000003Q258.62100000000004 -18.744 259.9080000000001 -19.206L259.05000000000007 -18.249000000000002Q259.38000000000005 -19.206 259.59450000000004 -20.559Q259.8090000000001 -21.912000000000003 259.84200000000004 -23.727Q259.84200000000004 -25.839000000000002 259.11600000000004 -27.159000000000002Q258.39000000000004 -28.479000000000003 257.07000000000005 -28.479000000000003Q255.75000000000006 -28.479000000000003 254.39700000000005 -27.439500000000002Q253.04400000000007 -26.400000000000002 251.83950000000004 -24.519000000000002Q250.63500000000005 -22.638 249.77700000000004 -20.0145Q248.91900000000007 -17.391000000000002 248.55600000000007 -14.190000000000001Q248.02800000000005 -9.273 249.72750000000005 -6.6825Q251.42700000000005 -4.0920000000000005 254.95800000000006 -4.0920000000000005Q256.83900000000006 -4.0920000000000005 258.55500000000006 -4.8345Q260.2710000000001 -5.577 261.70650000000006 -7.0125Q263.14200000000005 -8.448 264.1650000000001 -10.527000000000001Q264.56100000000004 -11.121 264.8745 -11.319Q265.18800000000005 -11.517000000000001 265.51800000000003 -11.484Q265.94700000000006 -11.484 266.17800000000005 -11.088000000000001Q266.40900000000005 -10.692 266.17800000000005 -9.9Q265.22100000000006 -6.864000000000001 263.1255000000001 -4.471500000000001Q261.0300000000001 -2.079 257.8785000000001 -0.6930000000000001Q254.72700000000006 0.6930000000000001 250.50300000000004 0.6930000000000001Q246.64200000000005 0.6930000000000001 244.10100000000006 -0.8085Q241.56000000000006 -2.31 240.45450000000005 -5.148000000000001Q239.34900000000005 -7.986000000000001 239.77800000000005 -12.012Q240.14100000000005 -15.84 241.70850000000007 -19.189500000000002Q243.27600000000007 -22.539 245.78400000000005 -25.0965Q248.29200000000006 -27.654 251.44350000000006 -29.106Q254.59500000000006 -30.558 258.15900000000005 -30.558Q261.0300000000001 -30.558 262.91100000000006 -29.469Q264.79200000000003 -28.380000000000003 265.749 -26.565Q266.7060000000001 -24.75 266.80500000000006 -22.572000000000003Q266.8380000000001 -22.077 267.05250000000007 -21.747Q267.26700000000005 -21.417 267.76200000000006 -21.384Q268.12500000000006 -21.351000000000003 268.2900000000001 -21.186Q268.45500000000004 -21.021 268.45500000000004 -20.724Q268.48800000000006 -20.361 268.1745000000001 -20.031Q267.86100000000005 -19.701 267.00300000000004 -19.437Q266.04600000000005 -19.14 264.01650000000006 -18.48Q261.9870000000001 -17.82 259.4295000000001 -16.995Q256.87200000000007 -16.17 254.24850000000006 -15.2955Q251.62500000000006 -14.421000000000001 249.39750000000004 -13.695Q247.17000000000004 -12.969000000000001 245.80050000000006 -12.507000000000001Q244.43100000000007 -12.045 244.43100000000007 -12.045Z" fill="#DD5127"/></g><g transform="translate(539.41,392.00)"><path d="M16.5 -27.984 14.355 -28.479000000000003Q13.860000000000001 -28.644000000000002 13.645500000000002 -28.8585Q13.431000000000001 -29.073 13.431000000000001 -29.37Q13.431000000000001 -29.766000000000002 13.711500000000001 -29.997Q13.992 -30.228 14.421000000000001 -30.228H16.830000000000002Q17.358 -30.228 17.721000000000004 -30.4095Q18.084000000000003 -30.591 18.447000000000003 -31.086000000000002L23.298000000000002 -36.696000000000005Q23.76 -37.224000000000004 24.189 -37.488Q24.618000000000002 -37.752 25.047000000000004 -37.752Q25.509 -37.752 25.756500000000003 -37.455Q26.004 -37.158 26.004 -36.597V-8.613Q26.004 -6.105 26.961 -4.851Q27.918 -3.597 29.601 -3.597Q30.558 -3.597 31.185000000000002 -3.9435000000000002Q31.812000000000005 -4.29 32.25750000000001 -4.818Q32.703 -5.346 33.0825 -5.907Q33.462 -6.468 33.891000000000005 -6.930000000000001Q34.188 -7.029 34.419000000000004 -6.8475Q34.650000000000006 -6.666 34.617000000000004 -6.138Q34.353 -4.125 33.264 -2.607Q32.175000000000004 -1.089 30.343500000000002 -0.23099999999999998Q28.512 0.627 26.07 0.627Q22.011000000000003 0.627 19.750500000000002 -1.3530000000000002Q17.490000000000002 -3.333 17.490000000000002 -7.359V-26.598000000000003Q17.490000000000002 -27.192 17.2755 -27.5055Q17.061 -27.819000000000003 16.5 -27.984ZM22.902 -28.116 23.034000000000002 -30.228H33.429Q33.957 -30.228 34.221000000000004 -30.03Q34.485 -29.832 34.485 -29.436Q34.485 -28.875 33.924 -28.4955Q33.363 -28.116 32.142 -28.116Z M54.021 -30.921000000000003Q58.773 -30.921000000000003 62.403000000000006 -28.908Q66.033 -26.895 68.0955 -23.298000000000002Q70.158 -19.701 70.158 -15.015Q70.158 -10.428 68.04599999999999 -6.8805000000000005Q65.934 -3.333 62.2215 -1.2870000000000001Q58.509 0.759 53.658 0.759Q48.906000000000006 0.759 45.276 -1.2540000000000002Q41.646 -3.2670000000000003 39.6 -6.8475Q37.554 -10.428 37.554 -15.081000000000001Q37.554 -19.668 39.6495 -23.2485Q41.745000000000005 -26.829 45.4575 -28.875Q49.17 -30.921000000000003 54.021 -30.921000000000003ZM56.034000000000006 -1.3860000000000001Q58.179 -1.683 59.5155 -3.432Q60.852000000000004 -5.181 61.264500000000005 -8.349Q61.67700000000001 -11.517000000000001 60.984 -16.038Q60.324 -20.559 58.9875 -23.496000000000002Q57.651 -26.433 55.786500000000004 -27.7695Q53.922000000000004 -29.106 51.678 -28.776Q49.5 -28.479000000000003 48.1635 -26.713500000000003Q46.827 -24.948 46.464 -21.7965Q46.101 -18.645 46.761 -14.124Q47.42100000000001 -9.669 48.774 -6.732Q50.127 -3.7950000000000004 51.97500000000001 -2.442Q53.82300000000001 -1.089 56.034000000000006 -1.3860000000000001Z M88.539 -27.984 86.39399999999999 -28.479000000000003Q85.899 -28.644000000000002 85.6845 -28.8585Q85.47 -29.073 85.47 -29.37Q85.47 -29.766000000000002 85.75049999999999 -29.997Q86.03099999999999 -30.228 86.46 -30.228H88.869Q89.39699999999999 -30.228 89.75999999999999 -30.4095Q90.12299999999999 -30.591 90.48599999999999 -31.086000000000002L95.337 -36.696000000000005Q95.79899999999999 -37.224000000000004 96.228 -37.488Q96.657 -37.752 97.086 -37.752Q97.548 -37.752 97.7955 -37.455Q98.04299999999999 -37.158 98.04299999999999 -36.597V-8.613Q98.04299999999999 -6.105 99.0 -4.851Q99.957 -3.597 101.64 -3.597Q102.597 -3.597 103.22399999999999 -3.9435000000000002Q103.851 -4.29 104.2965 -4.818Q104.74199999999999 -5.346 105.1215 -5.907Q105.501 -6.468 105.93 -6.930000000000001Q106.227 -7.029 106.458 -6.8475Q106.689 -6.666 106.656 -6.138Q106.392 -4.125 105.303 -2.607Q104.214 -1.089 102.3825 -0.23099999999999998Q100.551 0.627 98.109 0.627Q94.05 0.627 91.7895 -1.3530000000000002Q89.529 -3.333 89.529 -7.359V-26.598000000000003Q89.529 -27.192 89.3145 -27.5055Q89.1 -27.819000000000003 88.539 -27.984ZM94.941 -28.116 95.073 -30.228H105.468Q105.996 -30.228 106.25999999999999 -30.03Q106.524 -29.832 106.524 -29.436Q106.524 -28.875 105.963 -28.4955Q105.402 -28.116 104.181 -28.116Z M121.638 -47.685V-3.729Q121.638 -2.97 121.88550000000001 -2.5905000000000005Q122.13300000000001 -2.2110000000000003 122.661 -2.0460000000000003L124.113 -1.7160000000000002Q124.839 -1.452 124.839 -0.891Q124.839 0.0 123.717 0.0H110.715Q110.187 0.0 109.9065 -0.231Q109.626 -0.462 109.626 -0.8580000000000001Q109.626 -1.155 109.82400000000001 -1.3860000000000001Q110.022 -1.617 110.48400000000001 -1.749L112.00200000000001 -2.0460000000000003Q112.53 -2.2110000000000003 112.761 -2.5905000000000005Q112.992 -2.97 112.992 -3.696V-43.164Q112.992 -43.725 112.8105 -43.9725Q112.629 -44.22 112.2 -44.286L110.286 -44.352000000000004Q109.89 -44.418 109.7085 -44.616Q109.527 -44.814 109.527 -45.111000000000004Q109.527 -45.474000000000004 109.7415 -45.672000000000004Q109.956 -45.870000000000005 110.48400000000001 -46.068000000000005L118.14 -48.477000000000004Q118.965 -48.774 119.4435 -48.906000000000006Q119.922 -49.038000000000004 120.351 -49.038000000000004Q120.97800000000001 -49.038000000000004 121.308 -48.658500000000004Q121.638 -48.279 121.638 -47.685ZM120.813 -22.506 119.82300000000001 -23.529 121.077 -24.651Q124.80600000000001 -28.017000000000003 127.51200000000001 -29.469Q130.21800000000002 -30.921000000000003 132.627 -30.921000000000003Q136.224 -30.921000000000003 138.22050000000002 -28.578000000000003Q140.217 -26.235000000000003 140.712 -21.945L142.824 -3.861Q142.923 -3.036 143.1705 -2.607Q143.418 -2.178 143.979 -2.013L145.332 -1.7160000000000002Q145.761 -1.584 145.959 -1.3695Q146.157 -1.155 146.157 -0.8580000000000001Q146.157 -0.462 145.89300000000003 -0.231Q145.62900000000002 0.0 145.035 0.0H131.868Q130.713 0.0 130.713 -0.891Q130.713 -1.452 131.472 -1.7160000000000002L132.99 -2.0460000000000003Q133.584 -2.2110000000000003 133.86450000000002 -2.64Q134.145 -3.069 134.046 -3.861L132.132 -20.823Q131.802 -23.628 130.7625 -24.981Q129.723 -26.334 127.677 -26.334Q126.357 -26.334 124.971 -25.641Q123.58500000000001 -24.948 122.034 -23.628Z M176.781 -18.414Q176.781 -17.325 176.154 -16.7145Q175.527 -16.104 174.306 -16.104H153.78V-17.754H166.98Q168.135 -17.754 168.135 -18.876Q168.135 -23.925 166.551 -26.4165Q164.967 -28.908 162.525 -28.908Q160.54500000000002 -28.908 159.0765 -27.654000000000003Q157.608 -26.400000000000002 156.7665 -23.9415Q155.925 -21.483 155.925 -17.886Q155.925 -11.286000000000001 158.86200000000002 -8.002500000000001Q161.799 -4.719 166.617 -4.719Q169.752 -4.719 172.0125 -6.2205Q174.273 -7.722 175.065 -10.329Q175.395 -10.758000000000001 175.60950000000003 -10.906500000000001Q175.824 -11.055 176.055 -11.055Q176.385 -11.055 176.55 -10.7745Q176.715 -10.494 176.68200000000002 -10.032Q176.517 -7.029 174.7515 -4.587Q172.986 -2.145 169.9995 -0.6930000000000001Q167.013 0.759 163.218 0.759Q158.763 0.759 155.33100000000002 -1.1385Q151.899 -3.036 149.9685 -6.468Q148.038 -9.9 148.038 -14.487Q148.038 -19.338 149.9355 -23.0505Q151.833 -26.763 155.33100000000002 -28.8585Q158.829 -30.954 163.614 -30.954Q167.739 -30.954 170.676 -29.337000000000003Q173.613 -27.720000000000002 175.197 -24.882Q176.781 -22.044 176.781 -18.414Z M206.25 -3.762Q206.25 -3.069 206.547 -2.673Q206.844 -2.277 207.471 -2.2110000000000003L211.002 -1.749Q211.497 -1.7160000000000002 211.728 -1.4685000000000001Q211.959 -1.221 211.959 -0.8580000000000001Q211.959 0.0 210.87 0.0H194.667Q194.172 0.0 193.8915 -0.21450000000000002Q193.611 -0.42900000000000005 193.611 -0.792Q193.611 -1.1880000000000002 193.84199999999998 -1.4025Q194.073 -1.617 194.535 -1.749L196.449 -2.112Q197.109 -2.31 197.406 -2.673Q197.703 -3.036 197.703 -3.6300000000000003V-25.905Q197.703 -26.367 197.47199999999998 -26.680500000000002Q197.24099999999999 -26.994 196.647 -27.192L194.04 -27.852Q193.38 -28.116 193.149 -28.347Q192.918 -28.578000000000003 192.918 -28.908Q192.918 -29.238000000000003 193.18200000000002 -29.4525Q193.446 -29.667 193.941 -29.667H199.023L197.736 -28.941000000000003V-29.700000000000003Q197.736 -30.657 197.2575 -31.597500000000004Q196.779 -32.538000000000004 196.13549999999998 -33.5775Q195.492 -34.617000000000004 194.997 -35.904Q194.502 -37.191 194.502 -38.841Q194.502 -42.9 197.208 -45.292500000000004Q199.914 -47.685 204.633 -47.685Q207.636 -47.685 209.68200000000002 -46.7115Q211.728 -45.738 212.751 -44.121Q213.774 -42.504000000000005 213.774 -40.59Q213.774 -38.577000000000005 212.7345 -37.53750000000001Q211.695 -36.498000000000005 210.045 -36.498000000000005Q208.296 -36.498000000000005 207.207 -37.6365Q206.118 -38.775 206.118 -40.689V-43.230000000000004Q206.118 -44.649 205.392 -45.35850000000001Q204.666 -46.068000000000005 203.346 -46.068000000000005Q201.531 -46.035000000000004 200.5575 -44.88Q199.584 -43.725 199.584 -41.613Q199.584 -39.996 200.211 -38.61Q200.838 -37.224000000000004 201.7785 -36.0525Q202.719 -34.881 203.65949999999998 -33.8085Q204.6 -32.736000000000004 205.22699999999998 -31.6965Q205.85399999999998 -30.657 205.85399999999998 -29.568V-28.545L205.095 -29.667H211.827Q212.355 -29.667 212.63549999999998 -29.485500000000002Q212.916 -29.304000000000002 212.916 -28.908Q212.916 -28.347 212.3385 -27.9675Q211.761 -27.588 210.54 -27.588H206.25Z M238.524 -3.036V-5.8740000000000006L238.359 -6.039000000000001V-24.915000000000003Q238.359 -25.476000000000003 238.1775 -25.7235Q237.996 -25.971 237.567 -26.037000000000003L235.653 -26.103Q235.257 -26.169 235.0755 -26.367Q234.894 -26.565 234.894 -26.862000000000002Q234.894 -27.225 235.1085 -27.423000000000002Q235.323 -27.621000000000002 235.851 -27.819000000000003L243.507 -30.228Q244.332 -30.525000000000002 244.8105 -30.657000000000004Q245.289 -30.789 245.71800000000002 -30.789Q246.345 -30.789 246.675 -30.4095Q247.005 -30.03 247.005 -29.436V-3.729Q247.005 -2.97 247.2525 -2.5905000000000005Q247.5 -2.2110000000000003 248.02800000000002 -2.0460000000000003L249.513 -1.749Q249.942 -1.617 250.14 -1.3860000000000001Q250.338 -1.155 250.338 -0.8580000000000001Q250.338 -0.462 250.074 -0.231Q249.81 0.0 249.216 0.0H241.23000000000002Q240.042 0.0 239.28300000000002 -0.8415Q238.524 -1.683 238.524 -3.036ZM218.526 -8.514000000000001V-24.915000000000003Q218.526 -25.476000000000003 218.328 -25.7235Q218.13 -25.971 217.701 -26.037000000000003L215.787 -26.103Q215.391 -26.169 215.2095 -26.367Q215.028 -26.565 215.028 -26.862000000000002Q215.028 -27.225 215.2425 -27.423000000000002Q215.457 -27.621000000000002 215.985 -27.819000000000003L223.641 -30.228Q224.499 -30.558 224.9775 -30.6735Q225.456 -30.789 225.819 -30.789Q226.479 -30.789 226.8255 -30.4095Q227.172 -30.03 227.172 -29.436V-9.636000000000001Q227.172 -6.732 228.52499999999998 -5.3295Q229.878 -3.927 232.155 -3.927Q233.574 -3.927 235.125 -4.587Q236.676 -5.247 238.26 -6.633L239.514 -7.722L240.504 -6.699000000000001L239.25 -5.61Q235.422 -2.112 232.5015 -0.7095Q229.581 0.6930000000000001 227.007 0.6930000000000001Q223.245 0.6930000000000001 220.8855 -1.6995000000000002Q218.526 -4.0920000000000005 218.526 -8.514000000000001Z M266.079 -47.685V-3.729Q266.079 -2.97 266.3265 -2.5905000000000005Q266.574 -2.2110000000000003 267.069 -2.0460000000000003L268.587 -1.749Q269.016 -1.617 269.214 -1.3860000000000001Q269.412 -1.155 269.412 -0.8580000000000001Q269.412 -0.462 269.13149999999996 -0.231Q268.851 0.0 268.29 0.0H255.156Q254.595 0.0 254.33100000000002 -0.231Q254.067 -0.462 254.067 -0.8580000000000001Q254.067 -1.155 254.265 -1.3860000000000001Q254.463 -1.617 254.925 -1.749L256.443 -2.0460000000000003Q256.971 -2.2110000000000003 257.202 -2.5905000000000005Q257.433 -2.97 257.433 -3.696V-43.164Q257.433 -43.725 257.25149999999996 -43.9725Q257.07 -44.22 256.641 -44.286L254.727 -44.352000000000004Q254.331 -44.418 254.1495 -44.616Q253.968 -44.814 253.968 -45.111000000000004Q253.968 -45.474000000000004 254.1825 -45.672000000000004Q254.397 -45.870000000000005 254.925 -46.068000000000005L262.581 -48.477000000000004Q263.406 -48.807 263.8845 -48.9225Q264.363 -49.038000000000004 264.726 -49.038000000000004Q265.419 -49.038000000000004 265.749 -48.658500000000004Q266.079 -48.279 266.079 -47.685Z M284.955 -47.685V-3.729Q284.955 -2.97 285.2025 -2.5905000000000005Q285.45 -2.2110000000000003 285.945 -2.0460000000000003L287.46299999999997 -1.749Q287.892 -1.617 288.09 -1.3860000000000001Q288.28799999999995 -1.155 288.28799999999995 -0.8580000000000001Q288.28799999999995 -0.462 288.00749999999994 -0.231Q287.727 0.0 287.166 0.0H274.032Q273.471 0.0 273.207 -0.231Q272.943 -0.462 272.943 -0.8580000000000001Q272.943 -1.155 273.14099999999996 -1.3860000000000001Q273.339 -1.617 273.801 -1.749L275.31899999999996 -2.0460000000000003Q275.847 -2.2110000000000003 276.078 -2.5905000000000005Q276.30899999999997 -2.97 276.30899999999997 -3.696V-43.164Q276.30899999999997 -43.725 276.12749999999994 -43.9725Q275.94599999999997 -44.22 275.517 -44.286L273.60299999999995 -44.352000000000004Q273.207 -44.418 273.02549999999997 -44.616Q272.844 -44.814 272.844 -45.111000000000004Q272.844 -45.474000000000004 273.0585 -45.672000000000004Q273.27299999999997 -45.870000000000005 273.801 -46.068000000000005L281.457 -48.477000000000004Q282.282 -48.807 282.7605 -48.9225Q283.239 -49.038000000000004 283.602 -49.038000000000004Q284.29499999999996 -49.038000000000004 284.625 -48.658500000000004Q284.955 -48.279 284.955 -47.685Z M320.26499999999993 -18.414Q320.26499999999993 -17.325 319.6379999999999 -16.7145Q319.01099999999997 -16.104 317.78999999999996 -16.104H297.26399999999995V-17.754H310.46399999999994Q311.61899999999997 -17.754 311.61899999999997 -18.876Q311.61899999999997 -23.925 310.03499999999997 -26.4165Q308.45099999999996 -28.908 306.00899999999996 -28.908Q304.02899999999994 -28.908 302.56049999999993 -27.654000000000003Q301.0919999999999 -26.400000000000002 300.25049999999993 -23.9415Q299.40899999999993 -21.483 299.40899999999993 -17.886Q299.40899999999993 -11.286000000000001 302.34599999999995 -8.002500000000001Q305.28299999999996 -4.719 310.10099999999994 -4.719Q313.23599999999993 -4.719 315.49649999999997 -6.2205Q317.75699999999995 -7.722 318.549 -10.329Q318.87899999999996 -10.758000000000001 319.09349999999995 -10.906500000000001Q319.30799999999994 -11.055 319.53899999999993 -11.055Q319.86899999999997 -11.055 320.034 -10.7745Q320.19899999999996 -10.494 320.16599999999994 -10.032Q320.001 -7.029 318.2355 -4.587Q316.46999999999997 -2.145 313.48349999999994 -0.6930000000000001Q310.49699999999996 0.759 306.70199999999994 0.759Q302.24699999999996 0.759 298.81499999999994 -1.1385Q295.3829999999999 -3.036 293.45249999999993 -6.468Q291.52199999999993 -9.9 291.52199999999993 -14.487Q291.52199999999993 -19.338 293.41949999999997 -23.0505Q295.31699999999995 -26.763 298.81499999999994 -28.8585Q302.31299999999993 -30.954 307.09799999999996 -30.954Q311.22299999999996 -30.954 314.15999999999997 -29.337000000000003Q317.097 -27.720000000000002 318.6809999999999 -24.882Q320.26499999999993 -22.044 320.26499999999993 -18.414Z M337.359 -1.1880000000000002Q339.63599999999997 -1.1880000000000002 340.923 -2.3595Q342.21 -3.531 342.21 -5.346Q342.21 -6.534000000000001 341.66549999999995 -7.524000000000001Q341.121 -8.514000000000001 339.68549999999993 -9.322500000000002Q338.24999999999994 -10.131 335.643 -10.857000000000001Q331.12199999999996 -12.012 328.58099999999996 -13.563Q326.03999999999996 -15.114 325.0335 -17.110500000000002Q324.027 -19.107 324.027 -21.582Q324.027 -25.971 327.07949999999994 -28.4625Q330.13199999999995 -30.954 335.60999999999996 -30.954Q337.722 -30.954 339.075 -30.591Q340.428 -30.228 341.2365 -29.832Q342.04499999999996 -29.436 342.50699999999995 -29.436Q343.03499999999997 -29.436 343.62899999999996 -29.832Q344.22299999999996 -30.228 344.80049999999994 -30.6075Q345.378 -30.987000000000002 345.84 -30.987000000000002Q346.16999999999996 -30.987000000000002 346.4505 -30.7725Q346.731 -30.558 346.89599999999996 -29.964000000000002L348.876 -22.044Q349.10699999999997 -21.285 349.008 -20.823Q348.909 -20.361 348.44699999999995 -20.163Q347.98499999999996 -19.998 347.655 -20.163Q347.325 -20.328 346.99499999999995 -20.790000000000003Q345.31199999999995 -23.859 343.57949999999994 -25.674Q341.847 -27.489 339.98249999999996 -28.281Q338.118 -29.073 336.039 -29.073Q333.366 -29.073 331.98 -27.8685Q330.594 -26.664 330.594 -24.684Q330.594 -23.43 331.20449999999994 -22.407Q331.81499999999994 -21.384 333.44849999999997 -20.526Q335.082 -19.668 338.15099999999995 -18.909000000000002Q342.078 -17.919 344.4045 -16.467Q346.731 -15.015 347.754 -13.0185Q348.777 -11.022 348.777 -8.481Q348.777 -5.7090000000000005 347.3745 -3.6300000000000003Q345.972 -1.5510000000000002 343.5465 -0.4125000000000001Q341.121 0.726 337.953 0.726Q335.97299999999996 0.726 334.65299999999996 0.264Q333.33299999999997 -0.198 332.508 -0.66Q331.683 -1.122 331.155 -1.122Q330.65999999999997 -1.122 330.0825 -0.6765000000000001Q329.505 -0.231 328.94399999999996 0.21450000000000002Q328.383 0.66 327.921 0.66Q327.558 0.66 327.294 0.396Q327.03 0.132 326.931 -0.495L325.578 -7.623Q325.41299999999995 -8.514000000000001 325.51199999999994 -8.943000000000001Q325.611 -9.372 326.03999999999996 -9.537Q326.469 -9.735000000000001 326.8155 -9.504000000000001Q327.162 -9.273 327.525 -8.712Q329.835 -4.6530000000000005 332.34299999999996 -2.9205000000000005Q334.85099999999994 -1.1880000000000002 337.359 -1.1880000000000002Z M355.212 -27.984 353.067 -28.479000000000003Q352.572 -28.644000000000002 352.35749999999996 -28.8585Q352.143 -29.073 352.143 -29.37Q352.143 -29.766000000000002 352.4235 -29.997Q352.704 -30.228 353.133 -30.228H355.542Q356.07 -30.228 356.433 -30.4095Q356.796 -30.591 357.159 -31.086000000000002L362.01 -36.696000000000005Q362.472 -37.224000000000004 362.90099999999995 -37.488Q363.33 -37.752 363.759 -37.752Q364.221 -37.752 364.4685 -37.455Q364.716 -37.158 364.716 -36.597V-8.613Q364.716 -6.105 365.673 -4.851Q366.63 -3.597 368.313 -3.597Q369.27 -3.597 369.897 -3.9435000000000002Q370.524 -4.29 370.96950000000004 -4.818Q371.415 -5.346 371.79449999999997 -5.907Q372.174 -6.468 372.603 -6.930000000000001Q372.9 -7.029 373.131 -6.8475Q373.362 -6.666 373.329 -6.138Q373.065 -4.125 371.976 -2.607Q370.887 -1.089 369.0555 -0.23099999999999998Q367.224 0.627 364.782 0.627Q360.723 0.627 358.4625 -1.3530000000000002Q356.202 -3.333 356.202 -7.359V-26.598000000000003Q356.202 -27.192 355.9875 -27.5055Q355.773 -27.819000000000003 355.212 -27.984ZM361.614 -28.116 361.746 -30.228H372.141Q372.669 -30.228 372.933 -30.03Q373.197 -29.832 373.197 -29.436Q373.197 -28.875 372.63599999999997 -28.4955Q372.075 -28.116 370.854 -28.116Z M382.239 0.66Q380.754 0.66 379.54949999999997 -0.09900000000000003Q378.34499999999997 -0.8580000000000001 377.6355 -2.112Q376.926 -3.366 376.926 -4.851Q376.926 -6.369000000000001 377.6355 -7.6065000000000005Q378.34499999999997 -8.844000000000001 379.566 -9.586500000000001Q380.787 -10.329 382.239 -10.329Q383.757 -10.329 384.978 -9.586500000000001Q386.199 -8.844000000000001 386.892 -7.6065000000000005Q387.585 -6.369000000000001 387.585 -4.851Q387.585 -3.366 386.892 -2.112Q386.199 -0.8580000000000001 384.978 -0.09900000000000003Q383.757 0.66 382.239 0.66Z" fill="#F2E8D5"/></g></svg>